<svg width="25" height="24" viewBox="0 0 25 24" fill="none" xmlns="http://www.w3.org/2000/svg">
<path d="M13.7899 9.29018L9.78994 13.2902C9.69621 13.3831 9.62182 13.4937 9.57105 13.6156C9.52028 13.7375 9.49414 13.8682 9.49414 14.0002C9.49414 14.1322 9.52028 14.2629 9.57105 14.3848C9.62182 14.5066 9.69621 14.6172 9.78994 14.7102C9.8829 14.8039 9.9935 14.8783 10.1154 14.9291C10.2372 14.9798 10.3679 15.006 10.4999 15.006C10.632 15.006 10.7627 14.9798 10.8845 14.9291C11.0064 14.8783 11.117 14.8039 11.2099 14.7102L15.2099 10.7102C15.3982 10.5219 15.504 10.2665 15.504 10.0002C15.504 9.73388 15.3982 9.47849 15.2099 9.29018C15.0216 9.10188 14.7662 8.99609 14.4999 8.99609C14.2336 8.99609 13.9782 9.10188 13.7899 9.29018Z" fill="black"/>
<path d="M12.78 17.4L11.5 18.67C10.7815 19.4105 9.81547 19.8605 8.78632 19.9343C7.75717 20.008 6.73687 19.7004 5.92003 19.07C5.4883 18.7143 5.136 18.2719 4.88587 17.7715C4.63574 17.2711 4.49336 16.7239 4.46792 16.165C4.44247 15.6062 4.53453 15.0482 4.73815 14.5271C4.94177 14.0061 5.25242 13.5336 5.65003 13.14L7.07003 11.71C7.16376 11.6171 7.23815 11.5065 7.28892 11.3846C7.33969 11.2628 7.36583 11.132 7.36583 11C7.36583 10.868 7.33969 10.7373 7.28892 10.6155C7.23815 10.4936 7.16376 10.383 7.07003 10.29C6.97707 10.1963 6.86647 10.1219 6.74461 10.0711C6.62275 10.0204 6.49204 9.99424 6.36003 9.99424C6.22802 9.99424 6.09731 10.0204 5.97545 10.0711C5.8536 10.1219 5.74299 10.1963 5.65003 10.29L4.38003 11.57C3.31019 12.606 2.65262 13.9951 2.5294 15.4792C2.40618 16.9633 2.82568 18.4418 3.71003 19.64C4.23491 20.321 4.89867 20.8824 5.65722 21.2871C6.41577 21.6918 7.25174 21.9304 8.10961 21.9871C8.96748 22.0439 9.8276 21.9175 10.6328 21.6162C11.4381 21.315 12.17 20.8459 12.78 20.24L14.2 18.82C14.3883 18.6317 14.4941 18.3763 14.4941 18.11C14.4941 17.8437 14.3883 17.5883 14.2 17.4C14.0117 17.2117 13.7563 17.1059 13.49 17.1059C13.2237 17.1059 12.9683 17.2117 12.78 17.4ZM20.16 3.22004C18.9535 2.3265 17.463 1.90272 15.9669 2.02786C14.4707 2.153 13.0713 2.81849 12.03 3.90004L10.95 5.00004C10.8266 5.08977 10.7234 5.20443 10.647 5.33659C10.5707 5.46875 10.523 5.61546 10.507 5.76723C10.491 5.919 10.507 6.07244 10.554 6.21763C10.6011 6.36281 10.6781 6.4965 10.78 6.61004C10.873 6.70377 10.9836 6.77816 11.1055 6.82893C11.2273 6.8797 11.358 6.90584 11.49 6.90584C11.622 6.90584 11.7527 6.8797 11.8746 6.82893C11.9965 6.77816 12.1071 6.70377 12.2 6.61004L13.5 5.30004C14.2146 4.55635 15.1795 4.10387 16.2082 4.03C17.2369 3.95612 18.2565 4.26609 19.07 4.90004C19.505 5.25584 19.8601 5.69929 20.1122 6.2015C20.3643 6.70371 20.5078 7.25341 20.5332 7.81477C20.5587 8.37613 20.4656 8.93655 20.26 9.45953C20.0544 9.98251 19.741 10.4563 19.34 10.85L17.92 12.28C17.8263 12.373 17.7519 12.4836 17.7011 12.6055C17.6504 12.7273 17.6242 12.858 17.6242 12.99C17.6242 13.122 17.6504 13.2528 17.7011 13.3746C17.7519 13.4965 17.8263 13.6071 17.92 13.7C18.013 13.7938 18.1236 13.8682 18.2455 13.9189C18.3673 13.9697 18.498 13.9958 18.63 13.9958C18.762 13.9958 18.8927 13.9697 19.0146 13.9189C19.1365 13.8682 19.2471 13.7938 19.34 13.7L20.76 12.28C21.3642 11.6701 21.8319 10.9388 22.1321 10.1346C22.4323 9.33031 22.5582 8.47144 22.5015 7.61484C22.4448 6.75824 22.2067 5.92348 21.803 5.16583C21.3994 4.40818 20.8393 3.74494 20.16 3.22004Z" fill="black"/>
</svg>
