<svg width="25" height="24" viewBox="0 0 25 24" fill="none" xmlns="http://www.w3.org/2000/svg">
<path d="M9.44 18.705C10.7069 18.713 11.9627 18.4693 13.1346 17.9882C14.3066 17.507 15.3714 16.798 16.2672 15.9022C17.163 15.0064 17.8721 13.9416 18.3532 12.7696C18.8343 11.5977 19.078 10.3418 19.07 9.07499V8.63249C19.7267 8.15135 20.2951 7.56012 20.75 6.88499C20.1316 7.15543 19.4773 7.3348 18.8075 7.41749C19.5177 6.99432 20.0506 6.32824 20.3075 5.54249C19.6456 5.93957 18.9199 6.21871 18.1625 6.36749C17.6524 5.82401 16.9775 5.46378 16.2421 5.34253C15.5067 5.22128 14.7518 5.34576 14.0943 5.69673C13.4368 6.04769 12.9132 6.60557 12.6047 7.28405C12.2962 7.96252 12.2198 8.72376 12.3875 9.44999C11.042 9.38395 9.72553 9.03525 8.52377 8.42662C7.322 7.81798 6.2619 6.96305 5.4125 5.91749C4.98419 6.66087 4.85437 7.53923 5.04932 8.37473C5.24427 9.21023 5.74942 9.94043 6.4625 10.4175C5.93646 10.3972 5.42259 10.2533 4.9625 9.99749V10.035C4.95783 10.8119 5.21954 11.5669 5.70403 12.1742C6.18851 12.7815 6.8665 13.2044 7.625 13.3725C7.13573 13.5041 6.62322 13.5246 6.125 13.4325C6.34459 14.095 6.76376 14.6734 7.32503 15.0883C7.88631 15.5032 8.56219 15.7344 9.26 15.75C8.06691 16.7104 6.58407 17.239 5.0525 17.25C4.78396 17.2422 4.51606 17.2197 4.25 17.1825C5.80022 18.1702 7.6019 18.6909 9.44 18.6825" fill="#6DAFFF"/>
</svg>
