<svg width="24" height="24" viewBox="0 0 24 24" fill="none" xmlns="http://www.w3.org/2000/svg">
<g clip-path="url(#clip0_1102_15238)">
<path d="M6.24113 20.5551L6.62714 20.7491C8.23577 21.7186 10.0373 22.1711 11.8389 22.1711C17.5009 22.1711 22.1334 17.5171 22.1334 11.829C22.1334 9.11418 21.0396 6.46399 19.1094 4.52481C17.1792 2.58563 14.6054 1.48682 11.8389 1.48682C6.17684 1.48682 1.54419 6.14078 1.60857 11.8936C1.60857 13.8327 2.18764 15.7073 3.15273 17.3232L3.41007 17.7111L2.3807 21.5248L6.24113 20.5551Z" fill="#00E676"/>
<path d="M20.2031 3.49047C18.0155 1.22817 14.9915 0 11.9031 0C5.34039 0 0.0643821 5.36497 0.128672 11.8934C0.128672 13.9619 0.707741 15.9657 1.67292 17.7756L0 23.9162L6.24109 22.3003C7.9783 23.2699 9.90847 23.7224 11.8388 23.7224C18.3373 23.7224 23.6133 18.3573 23.6133 11.8289C23.6133 8.66159 22.3908 5.68819 20.2032 3.49047H20.2031ZM11.9031 21.7186C10.1659 21.7186 8.4287 21.2662 6.94883 20.3613L6.56282 20.1673L2.83106 21.1369L3.79614 17.4525L3.5388 17.0646C0.707741 12.4754 2.05893 6.3992 6.69149 3.55506C11.324 0.711012 17.3078 2.06845 20.1389 6.72241C22.9698 11.3764 21.6186 17.3878 16.9862 20.2319C15.5062 21.2015 13.7047 21.7185 11.9031 21.7185V21.7186ZM17.5651 14.5438L16.8574 14.2206C16.8574 14.2206 15.828 13.7681 15.1846 13.4449C15.1202 13.4449 15.0559 13.3802 14.9915 13.3802C14.7985 13.3802 14.6698 13.4449 14.5411 13.5096C14.5411 13.5096 14.4768 13.5742 13.576 14.6084C13.5117 14.7377 13.383 14.8023 13.2543 14.8023H13.1899C13.1256 14.8023 12.997 14.7377 12.9326 14.6731L12.6109 14.5438C11.9031 14.2206 11.2598 13.8327 10.745 13.3156C10.6163 13.1864 10.4233 13.0571 10.2946 12.9278C9.84418 12.4754 9.39379 11.9582 9.07215 11.3765L9.00777 11.2472C8.94348 11.1825 8.94348 11.1179 8.8791 10.9887C8.8791 10.8594 8.8791 10.7301 8.94348 10.6655C8.94348 10.6655 9.20082 10.3422 9.39379 10.1484C9.52255 10.019 9.58684 9.82517 9.71551 9.69591C9.84418 9.50196 9.90856 9.24343 9.84418 9.04948C9.77989 8.72627 9.00777 6.98103 8.81481 6.59324C8.68604 6.39929 8.55746 6.3347 8.36441 6.27002H7.65667C7.5279 6.27002 7.39932 6.3347 7.27056 6.3347L7.20618 6.39929C7.07751 6.46397 6.94883 6.59324 6.82016 6.65782C6.69149 6.78718 6.62711 6.91636 6.49844 7.04571C6.04804 7.62746 5.7907 8.33847 5.7907 9.04948C5.7907 9.56655 5.91937 10.0837 6.11242 10.5362L6.1768 10.7301C6.75587 11.9582 7.5279 13.0571 8.55746 14.0267L8.81481 14.2852C9.00777 14.4791 9.20082 14.6084 9.3295 14.8023C10.6807 15.9658 12.2248 16.8061 13.9621 17.2586C14.1551 17.3232 14.4124 17.3232 14.6055 17.3879H15.2489C15.5706 17.3879 15.9566 17.2586 16.214 17.1293C16.407 17.0001 16.5357 17.0001 16.6643 16.8708L16.7931 16.7414C16.9218 16.6122 17.0505 16.5476 17.1791 16.4183C17.3078 16.2891 17.4365 16.1598 17.5009 16.0304C17.6295 15.7719 17.6938 15.4487 17.7582 15.1256V14.6731C17.7582 14.6731 17.6938 14.6084 17.5651 14.5438Z" fill="white"/>
</g>
<defs>
<clipPath id="clip0_1102_15238">
<rect width="23.6129" height="24" fill="white"/>
</clipPath>
</defs>
</svg>
