<svg width="16" height="16" viewBox="0 0 16 16" fill="none" xmlns="http://www.w3.org/2000/svg">
<path d="M6.41166 6.47949L5.48026 9.58545C5.40116 9.84961 5.47343 10.1362 5.66849 10.3311C5.81107 10.4736 6.00272 10.5508 6.19877 10.5508C6.27079 10.5508 6.3433 10.5405 6.4141 10.519L9.5203 9.58789C9.63919 9.55224 9.74759 9.48779 9.83524 9.3999L15.5301 3.70508C15.6707 3.56446 15.7498 3.37354 15.7498 3.17481C15.7498 2.97608 15.6707 2.78516 15.5301 2.64453L13.355 0.469728C13.062 0.176757 12.5874 0.176757 12.2945 0.469728L6.59989 6.16455C6.512 6.25244 6.44755 6.36035 6.41166 6.47949ZM7.79423 7.09131L12.8247 2.06055L13.939 3.17481L8.90848 8.20557L7.31717 8.68262L7.79423 7.09131Z" fill="black"/>
<path d="M15 7.25C14.5857 7.25 14.25 7.58594 14.25 8V13C14.25 13.6895 13.6892 14.25 13 14.25H3C2.31079 14.25 1.75 13.6895 1.75 13V3C1.75 2.31055 2.31079 1.75 3 1.75H8C8.41431 1.75 8.75 1.41406 8.75 1C8.75 0.58594 8.41431 0.25 8 0.25H3C1.48364 0.25 0.25 1.48389 0.25 3V13C0.25 14.5161 1.48364 15.75 3 15.75H13C14.5164 15.75 15.75 14.5161 15.75 13V8C15.75 7.58594 15.4143 7.25 15 7.25Z" fill="#344054"/>
</svg>
