<svg width="215" height="120" viewBox="0 0 215 120" fill="none" xmlns="http://www.w3.org/2000/svg">
<g clip-path="url(#clip0_1840_19581)">
<path opacity="0.1" d="M134.389 111.867C137.511 110.389 187.245 111.089 179.334 74.8666C171.423 38.6444 120.889 42.9555 108.578 17.7777C96.267 -7.38893 63.1892 3.39996 44.4892 22.0888C25.4892 41.0888 7.08917 127.089 116.367 88.3222C158.889 73.2333 132.289 110.544 132.289 110.544" fill="#2A94F4"/>
<path d="M106.156 6.44438C100.2 5.45549 94.3003 8.54438 91.7559 14.0222C91.0115 15.6222 90.367 17.4888 89.8892 19.6555C87.4115 30.9444 86.0448 38.6444 75.7226 46.3555C65.4003 54.0666 88.0003 77.9777 99.5448 68.0777C111.089 58.1777 130.623 70.6222 135.034 63.2999C139.434 55.9777 131.478 47.9999 135.311 41.9444C139.145 35.8888 142.756 13.5999 132.3 6.1666C121.834 -1.26674 108.656 -2.91118 106.156 6.44438Z" fill="#FFBE55"/>
<path d="M103.078 53.2333C103.078 53.2333 78.0559 50.9666 83.0115 110.389H137.511C137.511 110.389 142.667 54.4666 117.434 53.2333H103.078Z" fill="#2A94F4"/>
<path d="M104.756 35.9666C104.756 35.9666 102.833 54.8888 103.1 58.7443C103.367 62.5999 114.989 65.8999 117.133 60.3999C118.433 57.0665 114.989 35.9777 114.989 35.9777H104.756V35.9666Z" fill="#FCD2B1"/>
<path d="M126.545 12.5112C126.545 12.5112 140.578 44.8779 119.378 47.8557C113.9 48.6223 105.989 42.5668 104.756 38.1668C103.667 34.3112 101.823 37.2668 100.411 33.9779C98.4892 29.489 99.8115 16.5557 103.934 24.8779C106.967 31.0001 113.289 13.5001 119.345 16.2557C125.4 19.0112 126.545 12.5112 126.545 12.5112Z" fill="#FFE3CA"/>
<path d="M94.5111 118.833L74.6111 55.9778C74.6111 55.9778 58.6666 63.3111 49.0889 69.5222C49.0889 69.5222 54.9444 85.5889 59.2889 94.3889C63.6333 103.189 65.8778 106.033 73.0889 109.722C80.3111 113.411 94.5111 118.833 94.5111 118.833Z" fill="#0E538C"/>
<path d="M94.5113 118.833L74.6113 55.9778C74.6113 55.9778 91.8669 52.8 103.278 52.3667C103.278 52.3667 107.734 68.8778 109.245 78.5778C110.756 88.2667 110.556 91.8889 106.778 99.0667C103.011 106.222 94.5113 118.833 94.5113 118.833Z" fill="#0E538C"/>
<path d="M51.8667 70.4555C53.4889 74.8222 57.9223 86.4666 61.3334 93.3777C65.4334 101.689 67.3778 104.233 74.1334 107.7C79.7 110.544 89.6667 114.511 93.6334 116.056L75.3 58.1555C73.3334 59.0777 60.5778 65.0666 51.8667 70.4555Z" fill="#F9F3ED"/>
<path d="M104.767 97.9999C108.3 91.2777 108.422 88.0777 106.989 78.9222C105.811 71.3111 102.722 59.2333 101.545 54.7222C91.3114 55.3333 77.4336 57.7666 75.3003 58.1555L93.6336 116.056C95.9892 112.511 101.856 103.533 104.767 97.9999Z" fill="#F9F3ED"/>
<path d="M53.5337 71.0335C55.4559 76.1335 59.4226 86.4446 62.5559 92.7779C66.4892 100.745 68.2115 103.133 74.7559 106.489C79.8337 109.089 88.6337 112.633 93.1004 114.389L75.7226 59.4668C73.7226 60.4001 61.9781 65.9335 53.5337 71.0335Z" fill="#0E538C"/>
<path d="M103.567 97.3668C106.989 90.8556 107.022 87.9223 105.656 79.1334C104.567 72.1556 101.889 61.4334 100.522 56.1667C90.6777 56.8556 77.8999 59.089 75.7222 59.4779L93.1111 114.389C95.7444 110.378 100.911 102.411 103.567 97.3668Z" fill="#0E538C"/>
<path d="M117.9 115.789L152.711 119.6C153.789 119.722 154.756 118.945 154.867 117.867L161.489 57.4001C161.611 56.3223 160.833 55.3556 159.756 55.2445L123 51.2112L116.156 113.622C116.044 114.7 116.822 115.667 117.9 115.789Z" fill="#D3D3D3"/>
<path d="M159.022 55.1667L157.722 55.0222L123.011 51.2222L121.711 51.0778C120.222 50.9111 118.889 51.9889 118.722 53.4778L112.256 112.456C112.089 113.945 113.167 115.278 114.656 115.445L147.978 119.1C149.467 119.267 150.8 118.189 150.967 116.7L153.922 89.7445L155.222 89.8889C156.711 90.0556 158.045 88.9778 158.211 87.4889L161.422 58.1556C161.578 56.6556 160.511 55.3222 159.022 55.1667Z" fill="#F7F7F7"/>
<path d="M99.3668 88.3223V78.4446C99.3668 75.289 102.278 72.9334 104.633 72.9334H110.3C114.267 72.9334 116.378 75.2779 116.378 78.4446V88.3223H121.233V78.4446C121.233 72.6112 116.945 68.0779 110.3 68.0779H104.633C99.6112 68.0779 94.5112 72.6112 94.5112 78.4446V88.3223H99.3668Z" fill="#CCE9FF"/>
<path d="M123.656 113.589C123.656 116.267 122.034 118.289 119.367 118.289H97.1781C94.5003 118.289 92.0781 116.267 92.0781 113.589V89.778C92.0781 87.1002 94.5115 86.7002 97.1781 86.7002H119.367C122.045 86.7002 123.656 87.1002 123.656 89.778V113.589Z" fill="#FFBE55"/>
<path d="M112.234 99.1001C112.234 96.8335 110.456 94.9668 108.189 94.9668C105.923 94.9668 104.223 96.8335 104.223 99.1001C104.223 100.722 105.034 102.011 106.656 102.745V110.356C106.656 111.411 107.223 112.222 108.278 112.222C109.334 112.222 109.9 111.411 109.9 110.356V102.745C111.512 102.011 112.234 100.711 112.234 99.1001Z" fill="#FFBE55"/>
<path opacity="0.13" d="M112.234 99.1001C112.234 96.8335 110.456 94.9668 108.189 94.9668C105.923 94.9668 104.223 96.8335 104.223 99.1001C104.223 100.722 105.034 102.011 106.656 102.745V110.356C106.656 111.411 107.223 112.222 108.278 112.222C109.334 112.222 109.9 111.411 109.9 110.356V102.745C111.512 102.011 112.234 100.711 112.234 99.1001Z" fill="black"/>
<path d="M86.7669 109.689L93.278 108C93.278 108 94.0669 104.9 95.5558 103.722C97.0447 102.544 98.8225 101.655 99.6225 101.755C100.411 101.855 98.7336 104.033 97.9336 105.022C97.1336 106.011 98.3336 106.311 101.5 104.133C104.667 101.955 107.345 101.255 108.134 105.711C108.922 110.178 104.367 112.255 98.8225 112.255C93.278 112.255 88.9225 115.378 88.9225 115.378C88.9225 115.378 80.6558 114.644 86.7669 109.689Z" fill="#FFE3CA"/>
<path d="M59.3002 94.3889C59.3002 94.3889 56.8668 94.5222 54.6668 98.9223C52.4668 103.322 55.2779 124.378 93.6446 116.056L91.1224 108.078C91.1113 108.078 61.4891 99.1223 59.3002 94.3889Z" fill="#2A94F4"/>
<path d="M130.045 109.689L123.534 108C123.534 108 122.745 104.9 121.256 103.722C119.767 102.544 117.989 101.655 117.189 101.755C116.4 101.855 118.078 104.033 118.878 105.022C119.678 106.011 118.478 106.311 115.311 104.133C112.145 101.955 109.467 101.255 108.678 105.711C107.889 110.178 112.445 112.255 117.989 112.255C123.534 112.255 127.889 115.378 127.889 115.378C127.889 115.378 136.156 114.644 130.045 109.689Z" fill="#FFE3CA"/>
<path d="M157.456 94.3889C157.456 94.3889 159.889 94.5222 162.089 98.9223C164.289 103.322 161.478 124.378 123.111 116.056L125.634 108.078C125.645 108.078 155.256 99.1223 157.456 94.3889Z" fill="#2A94F4"/>
</g>
<defs>
<clipPath id="clip0_1840_19581">
<rect width="213.333" height="120" fill="white" transform="translate(0.833496)"/>
</clipPath>
</defs>
</svg>
