<svg width="20" height="20" viewBox="0 0 20 20" fill="none" xmlns="http://www.w3.org/2000/svg">
<path d="M19.9895 10.1871C19.9895 9.36767 19.9214 8.76973 19.7742 8.14966H10.1992V11.848H15.8195C15.7062 12.767 15.0943 14.1512 13.7346 15.0812L13.7155 15.205L16.7429 17.4969L16.9527 17.5173C18.8789 15.7789 19.9895 13.221 19.9895 10.1871Z" fill="#4285F4"/>
<path d="M10.1992 19.9314C12.9527 19.9314 15.2642 19.0455 16.9527 17.5175L13.7346 15.0813C12.8734 15.6682 11.7176 16.0779 10.1992 16.0779C7.50241 16.0779 5.21351 14.3395 4.39758 11.9366L4.27798 11.9466L1.13003 14.3273L1.08887 14.4391C2.76588 17.6946 6.21059 19.9314 10.1992 19.9314Z" fill="#34A853"/>
<path d="M4.39748 11.9366C4.18219 11.3165 4.05759 10.6521 4.05759 9.96559C4.05759 9.27902 4.18219 8.61467 4.38615 7.9946L4.38045 7.86253L1.19304 5.4436L1.08876 5.49208C0.397576 6.84299 0.000976562 8.36002 0.000976562 9.96559C0.000976562 11.5712 0.397576 13.0881 1.08876 14.439L4.39748 11.9366Z" fill="#FBBC05"/>
<path d="M10.1993 3.85335C12.1142 3.85335 13.406 4.66167 14.1426 5.33716L17.0207 2.59106C15.2531 0.985493 12.9527 0 10.1993 0C6.21062 0 2.76589 2.23671 1.08887 5.49212L4.38627 7.99463C5.21353 5.59182 7.50244 3.85335 10.1993 3.85335Z" fill="#EB4335"/>
</svg>
