<svg width="240" height="52" viewBox="0 0 240 52" fill="none" xmlns="http://www.w3.org/2000/svg">
<mask id="mask0_2024_21071" style="mask-type:alpha" maskUnits="userSpaceOnUse" x="0" y="0" width="52" height="52">
<path d="M0 4C0 1.79086 1.75707 0 3.92453 0H48.0755C50.2429 0 52 1.79086 52 4V48C52 50.2091 50.2429 52 48.0755 52H3.92453C1.75707 52 0 50.2091 0 48V4Z" fill="url(#paint0_linear_2024_21071)"/>
</mask>
<g mask="url(#mask0_2024_21071)">
<g clip-path="url(#clip0_2024_21071)">
<path d="M292.474 39.4741L60.8489 -192.151L-92.9192 -38.3831L138.706 193.242L292.474 39.4741Z" fill="#001220"/>
<path d="M-39.8692 -91.4331L-36.1299 -84.1058C-32.3906 -76.7786 -24.912 -62.1241 -15.1271 -49.8789C-5.34203 -37.5824 6.74919 -27.7464 20.2503 -19.1659C33.7513 -10.6367 48.662 -3.4144 61.0353 6.24238C73.4601 15.8993 83.296 27.9905 91.364 42.0041C99.3806 56.0177 105.578 71.9536 117.362 82.1998C129.171 92.4717 146.542 97.0283 158.531 107.121C170.469 117.213 177.025 132.79 180.277 140.605L183.555 148.393L138.45 193.498L132.916 187.965C127.383 182.432 116.317 171.365 105.302 160.35C94.2608 149.309 83.2972 138.346 72.2564 127.305C61.2413 116.29 50.1748 105.223 39.1597 94.2084C28.1189 83.1676 17.1553 72.204 6.11453 61.1632C-4.90053 50.1481 -15.9671 39.0816 -26.9821 28.0665C-38.0229 17.0257 -48.9865 6.06213 -60.0273 -4.97867C-71.0424 -15.9937 -82.1089 -27.0603 -87.6422 -32.5935L-93.1755 -38.1268L-39.8692 -91.4331Z" fill="#4797E1"/>
<path d="M-48.3265 -82.9758L-43.8183 -76.4174C-39.3102 -69.859 -30.2939 -56.7422 -18.8431 -46.1628C-7.39229 -35.5321 6.4929 -27.4901 17.4056 -16.3211C28.2925 -5.17793 36.1811 9.06647 46.7349 20.5428C57.3144 32.0449 70.482 40.8045 83.3168 50.0514C96.1258 59.2725 108.576 68.9551 120.745 78.8169C132.939 88.7045 144.825 98.7454 156.096 109.556C167.316 120.366 177.87 131.945 183.147 137.734L188.424 143.524L138.45 193.498L132.916 187.965C127.383 182.432 116.317 171.365 105.302 160.35C94.2608 149.309 83.2972 138.346 72.2564 127.305C61.2413 116.29 50.1748 105.223 39.1597 94.2084C28.1189 83.1676 17.1553 72.204 6.11455 61.1632C-4.90052 50.1481 -15.9671 39.0816 -26.9821 28.0665C-38.0229 17.0257 -48.9865 6.06213 -60.0273 -4.97867C-71.0424 -15.9937 -82.1089 -27.0603 -87.6422 -32.5935L-93.1755 -38.1268L-48.3265 -82.9758Z" fill="#3189E0"/>
<path d="M-57.0399 -74.2623L-52.3524 -67.8833C-47.6905 -61.4787 -38.3154 -48.7207 -28.9405 -36.0654C-19.5143 -23.41 -10.0883 -10.9088 2.28512 -1.20061C14.6072 8.50743 29.8767 15.371 41.43 25.8479C53.0346 36.3248 60.9229 50.3638 71.7586 61.6096C82.5431 72.8553 96.2749 81.2566 106.47 93.0917C116.691 104.953 123.4 120.17 133.877 131.775C144.328 143.354 158.573 151.243 165.669 155.213L172.791 159.157L138.45 193.498L132.917 187.965C127.383 182.432 116.317 171.365 105.302 160.35C94.2608 149.31 83.2973 138.346 72.2564 127.305C61.2414 116.29 50.1749 105.224 39.1598 94.2085C28.119 83.1677 17.1554 72.2041 6.11458 61.1633C-4.90049 50.1482 -15.967 39.0817 -26.9821 28.0666C-38.0229 17.0258 -48.9865 6.06219 -60.0273 -4.97861C-71.0424 -15.9937 -82.1089 -27.0602 -87.6422 -32.5935L-93.1754 -38.1268L-57.0399 -74.2623Z" fill="#1F7ADD"/>
<path d="M-72.4167 -58.8855L-66.3196 -53.9161C-60.2481 -48.921 -48.054 -38.9821 -36.0138 -28.9921C-23.9479 -18.9764 -12.0616 -8.93545 -0.71331 1.79782C10.6093 12.5054 21.317 23.9307 32.4346 34.8432C43.5523 45.8071 55.0285 56.2582 66.4024 66.9658C77.7763 77.6221 88.9966 88.5349 98.3971 101.165C107.823 113.82 115.353 128.218 124.343 141.309C133.308 154.374 143.708 166.107 148.883 171.999L154.083 177.865L138.45 193.498L132.917 187.965C127.383 182.432 116.317 171.365 105.302 160.35C94.2609 149.309 83.2973 138.346 72.2565 127.305C61.2414 116.29 50.1749 105.223 39.1598 94.2084C28.119 83.1676 17.1554 72.204 6.11464 61.1632C-4.90043 50.1481 -15.967 39.0816 -26.982 28.0665C-38.0228 17.0257 -48.9864 6.06213 -60.0272 -4.97867C-71.0423 -15.9937 -82.1088 -27.0603 -87.6421 -32.5935L-93.1754 -38.1268L-72.4167 -58.8855Z" fill="#176AD8"/>
<path d="M-80.1052 -51.1971L-74.9563 -45.2794C-69.8075 -39.3617 -59.5098 -27.5264 -48.3666 -16.6394C-37.1976 -5.72676 -25.2089 4.21171 -13.7324 14.8168C-2.30729 25.4219 8.60548 36.6422 19.3643 47.9135C30.1488 59.2106 40.7536 70.533 50.8718 82.4964C60.9386 94.4597 70.4675 107.064 82.4564 117.105C94.4967 127.146 108.946 134.625 121.78 143.871C134.589 153.093 145.759 164.057 151.317 169.564L156.902 175.046L138.45 193.498L132.917 187.965C127.383 182.432 116.317 171.365 105.302 160.35C94.2608 149.309 83.2972 138.346 72.2564 127.305C61.2414 116.29 50.1748 105.223 39.1598 94.2084C28.119 83.1676 17.1554 72.204 6.11456 61.1632C-4.9005 50.1481 -15.967 39.0816 -26.9821 28.0665C-38.0229 17.0257 -48.9865 6.06213 -60.0273 -4.97867C-71.0424 -15.9937 -82.1089 -27.0603 -87.6422 -32.5936L-93.1755 -38.1268L-80.1052 -51.1971Z" fill="#2059D2"/>
</g>
<path d="M22.8597 11C22.3524 11 21.9412 11.4035 21.9412 11.9013V18.2098C21.9412 18.7075 22.3524 19.111 22.8597 19.111H32.0452C32.5525 19.111 32.9638 19.5145 32.9638 20.0122V40.7403C32.9638 41.238 33.375 41.6415 33.8823 41.6415H40.3122C40.8195 41.6415 41.2308 41.238 41.2308 40.7403V11.9013C41.2308 11.4035 40.8195 11 40.3122 11H22.8597Z" fill="white"/>
<path d="M10 11.9013C10 11.4035 10.4112 11 10.9186 11H17.3484C17.8557 11 18.267 11.4035 18.267 11.9013V20.9135C18.267 21.4112 18.6782 21.8147 19.1855 21.8147H28.371C28.8783 21.8147 29.2896 22.2182 29.2896 22.7159V40.7403C29.2896 41.238 28.8783 41.6415 28.371 41.6415H21.9412C21.4339 41.6415 21.0226 41.238 21.0226 40.7403V30.8269C21.0226 30.3292 20.6114 29.9257 20.1041 29.9257H19.1855C18.6782 29.9257 18.267 30.3292 18.267 30.8269V40.7403C18.267 41.238 17.8557 41.6415 17.3484 41.6415H10.9186C10.4112 41.6415 10 41.238 10 40.7403V11.9013Z" fill="white"/>
</g>
<mask id="mask1_2024_21071" style="mask-type:alpha" maskUnits="userSpaceOnUse" x="68" y="10" width="172" height="32">
<rect x="68" y="10" width="171.52" height="32" fill="#C4C4C4"/>
</mask>
<g mask="url(#mask1_2024_21071)">
<path d="M165.465 12.58C165.465 11.8731 166.038 11.3 166.745 11.3H169.785C170.492 11.3 171.065 11.8731 171.065 12.58V34.1C171.065 34.8069 171.638 35.38 172.345 35.38H177.945C178.652 35.38 179.225 35.9531 179.225 36.66V39.44C179.225 40.1469 178.652 40.72 177.945 40.72H166.745C166.038 40.72 165.465 40.1469 165.465 39.44V12.58Z" fill="url(#paint1_linear_2024_21071)"/>
<path d="M198.575 19.6582C198.575 19.2726 198.888 18.96 199.273 18.96H202.735C203.442 18.96 204.015 19.5331 204.015 20.24V39.44C204.015 40.1469 203.442 40.72 202.735 40.72H199.266C198.884 40.72 198.575 40.4107 198.575 40.0292C198.575 39.4222 197.835 39.0971 197.348 39.4599C196.686 39.9534 196.022 40.3401 195.355 40.62C194.288 41.06 193.128 41.28 191.875 41.28C189.062 41.28 186.628 40.1934 184.575 38.02C182.522 35.8334 181.495 33.12 181.495 29.88C181.495 26.52 182.488 23.7667 184.475 21.62C186.462 19.4734 188.875 18.4 191.715 18.4C193.022 18.4 194.248 18.6467 195.395 19.14C196.057 19.4249 196.69 19.792 197.295 20.2413C197.796 20.6138 198.575 20.2825 198.575 19.6582ZM192.835 23.44C191.142 23.44 189.735 24.04 188.615 25.24C187.495 26.4267 186.935 27.9534 186.935 29.82C186.935 31.7 187.502 33.2467 188.635 34.46C189.782 35.6734 191.188 36.28 192.855 36.28C194.575 36.28 196.002 35.6867 197.135 34.5C198.268 33.3 198.835 31.7334 198.835 29.8C198.835 27.9067 198.268 26.3734 197.135 25.2C196.002 24.0267 194.568 23.44 192.835 23.44Z" fill="url(#paint2_linear_2024_21071)"/>
<path d="M207.323 20.6739C207.022 19.8397 207.64 18.96 208.527 18.96H211.141C211.683 18.96 212.166 19.3018 212.347 19.8131L215.264 28.0562C215.661 29.1791 217.242 29.1982 217.666 28.0852L220.831 19.784C221.02 19.2879 221.496 18.96 222.027 18.96H223.52C224.053 18.96 224.53 19.2898 224.718 19.788L227.796 27.9425C228.216 29.0567 229.797 29.043 230.199 27.9217L233.102 19.8088C233.284 19.2997 233.766 18.96 234.307 18.96H236.956C237.845 18.96 238.463 19.8438 238.158 20.6788L231.152 39.8788C230.968 40.3839 230.488 40.72 229.95 40.72H228.273C227.739 40.72 227.261 40.3886 227.074 39.8886L223.926 31.4762C223.514 30.3735 221.957 30.3658 221.533 31.4644L218.281 39.9004C218.091 40.3943 217.616 40.72 217.087 40.72H215.445C214.905 40.72 214.423 40.3816 214.241 39.8739L207.323 20.6739Z" fill="url(#paint3_linear_2024_21071)"/>
<path fill-rule="evenodd" clip-rule="evenodd" d="M134.395 42.4009L134.502 43.0883L134.934 43.0211L134.395 42.4009ZM145.391 17.7882C142.139 17.3984 139.249 18.3007 136.722 20.495C134.185 22.698 132.886 25.4419 132.825 28.7267C132.766 31.7092 133.724 34.3381 135.7 36.6133C137.693 38.9087 140.233 40.2264 143.318 40.5667C146.405 40.8881 149.207 39.9561 151.724 37.7705C154.231 35.5937 155.536 32.9589 155.641 29.8662C155.747 26.7547 154.803 24.0512 152.81 21.7559C150.825 19.4706 148.352 18.148 145.391 17.7882ZM135.695 28.4327C135.826 26.0412 136.767 24.0849 138.519 22.5638C140.26 21.0514 142.324 20.3981 144.711 20.604C147.107 20.8012 149.105 21.821 150.705 23.6633C151.736 24.8512 152.411 26.2078 152.729 27.733C153.047 29.2581 152.962 30.7266 152.475 32.1384C151.979 33.5401 151.148 34.748 149.98 35.7621C148.812 36.7762 147.499 37.4304 146.042 37.7247C144.576 38.0089 143.11 37.8867 141.645 37.3582C140.179 36.8296 138.931 35.9713 137.899 34.7834C136.299 32.9411 135.565 30.8242 135.695 28.4327Z" fill="#4E4C4C"/>
<path fill-rule="evenodd" clip-rule="evenodd" d="M154.468 24.0924C154.073 23.3465 153.089 23.2357 152.451 23.7891C151.901 24.2668 151.809 25.076 152.129 25.7304C152.454 26.3939 152.694 27.0974 152.849 27.841C153.167 29.3662 153.082 30.8346 152.595 32.2464C152.099 33.6481 151.268 34.856 150.1 35.8701C148.932 36.8842 147.619 37.5384 146.162 37.8327C144.696 38.1169 143.23 37.9947 141.765 37.4662C141.053 37.2096 140.393 36.8753 139.784 36.4633C139.176 36.0521 138.355 36.0295 137.801 36.5108C137.159 37.0681 137.131 38.0651 137.818 38.5648C139.43 39.736 141.304 40.4393 143.438 40.6747C146.525 40.9962 149.327 40.0641 151.844 37.8785C154.351 35.7017 155.656 33.067 155.761 29.9742C155.834 27.8176 155.403 25.8569 154.468 24.0924Z" fill="#3D87DE"/>
<path fill-rule="evenodd" clip-rule="evenodd" d="M149.92 13.2C149.92 14.2604 149.06 15.12 148 15.12C147.661 15.12 147.343 15.0323 147.067 14.8783C146.339 14.473 145.633 13.84 144.8 13.84C143.967 13.84 143.261 14.473 142.533 14.8783C142.257 15.0323 141.939 15.12 141.6 15.12C140.54 15.12 139.68 14.2604 139.68 13.2C139.68 12.1396 140.54 11.28 141.6 11.28C141.939 11.28 142.257 11.3677 142.533 11.5217C143.261 11.9271 143.967 12.56 144.8 12.56C145.633 12.56 146.339 11.927 147.067 11.5217C147.343 11.3677 147.661 11.28 148 11.28C149.06 11.28 149.92 12.1396 149.92 13.2Z" fill="#3F89DE"/>
<path fill-rule="evenodd" clip-rule="evenodd" d="M124.14 11.84C124.14 11.1331 124.713 10.56 125.42 10.56H125.66C126.367 10.56 126.94 11.1331 126.94 11.84V39.44C126.94 40.147 126.367 40.72 125.66 40.72H125.42C124.713 40.72 124.14 40.147 124.14 39.44V11.84ZM70.26 11.3C69.5531 11.3 68.98 11.8731 68.98 12.58V39.44C68.98 40.147 69.5531 40.72 70.26 40.72H70.66C71.3669 40.72 71.94 40.147 71.94 39.44V27.8C71.94 27.0931 72.5131 26.52 73.22 26.52H85.62C86.3269 26.52 86.9 27.0931 86.9 27.8V39.44C86.9 40.147 87.4731 40.72 88.18 40.72H88.58C89.2869 40.72 89.86 40.147 89.86 39.44V12.58C89.86 11.8731 89.2869 11.3 88.58 11.3H88.18C87.4731 11.3 86.9 11.8731 86.9 12.58V22.36C86.9 23.067 86.3269 23.64 85.62 23.64H73.22C72.5131 23.64 71.94 23.067 71.94 22.36V12.58C71.94 11.8731 71.3669 11.3 70.66 11.3H70.26ZM118.24 20.24C118.24 19.5331 117.667 18.96 116.96 18.96H116.455C115.916 18.96 115.48 19.3965 115.48 19.935C115.48 20.8818 114.166 21.3444 113.441 20.7361C112.881 20.2667 112.287 19.868 111.66 19.54C110.22 18.78 108.607 18.4 106.82 18.4C103.727 18.4 101.08 19.5134 98.88 21.74C96.68 23.9667 95.58 26.6467 95.58 29.78C95.58 32.98 96.6666 35.7 98.84 37.94C101.027 40.1667 103.66 41.28 106.74 41.28C108.473 41.28 110.067 40.92 111.52 40.2C112.224 39.8543 112.895 39.427 113.531 38.9183C114.255 38.3402 115.48 38.8072 115.48 39.7333C115.48 40.2782 115.922 40.72 116.467 40.72H116.96C117.667 40.72 118.24 40.147 118.24 39.44V20.24ZM102.72 22.26C104.04 21.4867 105.48 21.1 107.04 21.1C109.467 21.1 111.507 21.9467 113.16 23.64C114.827 25.3334 115.66 27.44 115.66 29.96C115.66 31.6134 115.287 33.1 114.54 34.42C113.807 35.74 112.753 36.7867 111.38 37.56C110.007 38.3334 108.553 38.72 107.02 38.72C105.5 38.72 104.073 38.3334 102.74 37.56C101.42 36.7734 100.367 35.68 99.58 34.28C98.7933 32.88 98.4 31.4134 98.4 29.88C98.4 28.3334 98.7866 26.8667 99.56 25.48C100.347 24.0934 101.4 23.02 102.72 22.26Z" fill="#4E4C4C"/>
</g>
<defs>
<linearGradient id="paint0_linear_2024_21071" x1="0" y1="0" x2="20.6314" y2="62.3755" gradientUnits="userSpaceOnUse">
<stop stop-color="#2059D2"/>
<stop offset="1" stop-color="#4797E1"/>
</linearGradient>
<linearGradient id="paint1_linear_2024_21071" x1="201.145" y1="-0.239982" x2="201.145" y2="49.68" gradientUnits="userSpaceOnUse">
<stop stop-color="#215AD3"/>
<stop offset="1" stop-color="#4695E1"/>
</linearGradient>
<linearGradient id="paint2_linear_2024_21071" x1="201.145" y1="-0.239982" x2="201.145" y2="49.68" gradientUnits="userSpaceOnUse">
<stop stop-color="#215AD3"/>
<stop offset="1" stop-color="#4695E1"/>
</linearGradient>
<linearGradient id="paint3_linear_2024_21071" x1="201.145" y1="-0.239982" x2="201.145" y2="49.68" gradientUnits="userSpaceOnUse">
<stop stop-color="#215AD3"/>
<stop offset="1" stop-color="#4695E1"/>
</linearGradient>
<clipPath id="clip0_2024_21071">
<rect width="327.568" height="217.461" fill="white" transform="translate(60.8489 -192.151) rotate(45)"/>
</clipPath>
</defs>
</svg>
