<svg width="127" height="30" viewBox="0 0 127 30" fill="none" xmlns="http://www.w3.org/2000/svg">
<path d="M72.3633 2.25663C72.3633 1.72644 72.7931 1.29663 73.3233 1.29663H75.6033C76.1335 1.29663 76.5633 1.72644 76.5633 2.25663V18.3966C76.5633 18.9268 76.9931 19.3566 77.5233 19.3566H81.7233C82.2535 19.3566 82.6833 19.7864 82.6833 20.3166V22.4016C82.6833 22.9318 82.2535 23.3616 81.7233 23.3616H73.3233C72.7931 23.3616 72.3633 22.9318 72.3633 22.4016V2.25663Z" fill="url(#paint0_linear_1251_4455)"/>
<path d="M97.1961 7.56525C97.1961 7.27606 97.4305 7.04163 97.7197 7.04163H100.316C100.846 7.04163 101.276 7.47144 101.276 8.00163V22.4016C101.276 22.9318 100.846 23.3616 100.316 23.3616H97.7142C97.4281 23.3616 97.1961 23.1297 97.1961 22.8435V22.8435C97.1961 22.3883 96.6408 22.1444 96.2759 22.4165C95.7795 22.7867 95.2813 23.0767 94.7811 23.2866C93.9811 23.6166 93.1111 23.7816 92.1711 23.7816C90.0611 23.7816 88.2361 22.9666 86.6961 21.3366C85.1561 19.6966 84.3861 17.6616 84.3861 15.2316C84.3861 12.7116 85.1311 10.6466 86.6211 9.03663C88.1111 7.42663 89.9211 6.62163 92.0511 6.62163C93.0311 6.62163 93.9511 6.80663 94.8111 7.17663C95.3077 7.39028 95.7826 7.6656 96.2358 8.0026C96.6115 8.28198 97.1961 8.03346 97.1961 7.56525V7.56525ZM92.8911 10.4016C91.6211 10.4016 90.5661 10.8516 89.7261 11.7516C88.8861 12.6416 88.4661 13.7866 88.4661 15.1866C88.4661 16.5966 88.8911 17.7566 89.7411 18.6666C90.6011 19.5766 91.6561 20.0316 92.9061 20.0316C94.1961 20.0316 95.2661 19.5866 96.1161 18.6966C96.9661 17.7966 97.3911 16.6216 97.3911 15.1716C97.3911 13.7516 96.9661 12.6016 96.1161 11.7216C95.2661 10.8416 94.1911 10.4016 92.8911 10.4016Z" fill="url(#paint1_linear_1251_4455)"/>
<path d="M103.757 8.32704C103.532 7.7014 103.995 7.04163 104.66 7.04163H106.62C107.027 7.04163 107.39 7.29797 107.525 7.68144L109.713 13.8638C110.01 14.7059 111.196 14.7203 111.515 13.8856L113.888 7.65963C114.03 7.28752 114.387 7.04163 114.785 7.04163H115.905C116.305 7.04163 116.662 7.28894 116.803 7.66262L119.112 13.7785C119.427 14.6141 120.613 14.6039 120.914 13.7629L123.091 7.67819C123.228 7.2964 123.589 7.04163 123.995 7.04163H125.982C126.648 7.04163 127.112 7.70444 126.884 8.3307L121.629 22.7307C121.491 23.1096 121.131 23.3616 120.727 23.3616H119.47C119.069 23.3616 118.711 23.1131 118.571 22.7381L116.21 16.4288C115.9 15.6018 114.732 15.596 114.415 16.4199L111.976 22.7469C111.833 23.1173 111.477 23.3616 111.08 23.3616H109.848C109.444 23.3616 109.082 23.1078 108.945 22.727L103.757 8.32704Z" fill="url(#paint2_linear_1251_4455)"/>
<path fill-rule="evenodd" clip-rule="evenodd" d="M49.061 24.6211L49.1414 25.1373L49.4654 25.0868L49.061 24.6211ZM57.3083 6.16219C54.8691 5.86985 52.702 6.54654 50.8068 8.19226C48.9041 9.84455 47.9297 11.9025 47.8837 14.3661C47.8396 16.603 48.5584 18.5746 50.0402 20.281C51.5351 22.0025 53.4397 22.9909 55.7538 23.2461C58.069 23.4871 60.1704 22.7881 62.058 21.1489C63.9381 19.5163 64.9173 17.5402 64.9957 15.2207C65.075 12.8871 64.3672 10.8595 62.8723 9.13796C61.3839 7.424 59.5293 6.43207 57.3083 6.16219ZM50.0365 14.1456C50.1345 12.352 50.8404 10.8848 52.1542 9.74389C53.4604 8.60959 55.0083 8.11965 56.798 8.27408C58.5951 8.42196 60.0937 9.18677 61.2935 10.5685C62.0672 11.4595 62.5733 12.4769 62.8117 13.6208C63.0501 14.7647 62.9867 15.866 62.6214 16.9248C62.2497 17.9761 61.6258 18.882 60.75 19.6426C59.8741 20.4032 58.8897 20.8938 57.7967 21.1145C56.6971 21.3277 55.5977 21.2361 54.4986 20.8397C53.3994 20.4432 52.463 19.7996 51.6893 18.9086C50.4894 17.5268 49.9385 15.9392 50.0365 14.1456Z" fill="#4E4C4C"/>
<path fill-rule="evenodd" clip-rule="evenodd" d="M64.1167 10.8895C63.8203 10.33 63.082 10.2468 62.604 10.662V10.662C62.1915 11.0202 62.1224 11.627 62.3624 12.1178C62.6057 12.6151 62.7854 13.1425 62.9016 13.6998C63.14 14.8437 63.0766 15.9451 62.7113 17.0039C62.3396 18.0552 61.7157 18.9611 60.8399 19.7217C59.964 20.4822 58.9796 20.9729 57.8866 21.1936C56.787 21.4068 55.6876 21.3151 54.5885 20.9187C54.0552 20.7264 53.5602 20.4759 53.1036 20.1671C52.6476 19.8588 52.0325 19.8419 51.6169 20.2028V20.2028C51.1355 20.6209 51.114 21.3687 51.6299 21.7435C52.8385 22.6214 54.2432 23.1486 55.8438 23.3251C58.1589 23.5662 60.2603 22.8672 62.1479 21.228C64.028 19.5954 65.0072 17.6193 65.0856 15.2998C65.1405 13.6827 64.8176 12.2126 64.1167 10.8895Z" fill="#3D87DE"/>
<path fill-rule="evenodd" clip-rule="evenodd" d="M60.7054 2.72101C60.7054 3.5163 60.0607 4.16101 59.2654 4.16101C59.0113 4.16101 58.7726 4.09521 58.5654 3.97974C58.02 3.67576 57.4898 3.20103 56.8654 3.20103V3.20103C56.2409 3.20103 55.7108 3.67576 55.1654 3.97974C54.9581 4.09522 54.7194 4.16101 54.4654 4.16101C53.6701 4.16101 53.0254 3.5163 53.0254 2.72101C53.0254 1.92572 53.6701 1.28101 54.4654 1.28101C54.7195 1.28101 54.9582 1.34682 55.1654 1.46231C55.7108 1.7663 56.2409 2.24103 56.8654 2.24103V2.24103C57.4898 2.24103 58.0199 1.76629 58.5654 1.4623C58.7726 1.34681 59.0113 1.28101 59.2654 1.28101C60.0607 1.28101 60.7054 1.92572 60.7054 2.72101Z" fill="#3F89DE"/>
<path fill-rule="evenodd" clip-rule="evenodd" d="M41.37 1.70194C41.37 1.17175 41.7998 0.741943 42.33 0.741943H42.51C43.0402 0.741943 43.47 1.17175 43.47 1.70194V22.4019C43.47 22.9321 43.0402 23.3619 42.51 23.3619H42.33C41.7998 23.3619 41.37 22.9321 41.37 22.4019V1.70194ZM0.96 1.29694C0.429807 1.29694 0 1.72675 0 2.25694V22.4019C0 22.9321 0.429807 23.3619 0.96 23.3619H1.26C1.79019 23.3619 2.22 22.9321 2.22 22.4019V13.6719C2.22 13.1418 2.64981 12.7119 3.18 12.7119H12.48C13.0102 12.7119 13.44 13.1418 13.44 13.6719V22.4019C13.44 22.9321 13.8698 23.3619 14.4 23.3619H14.7C15.2302 23.3619 15.66 22.9321 15.66 22.4019V2.25694C15.66 1.72675 15.2302 1.29694 14.7 1.29694H14.4C13.8698 1.29694 13.44 1.72675 13.44 2.25694V9.59194C13.44 10.1221 13.0102 10.5519 12.48 10.5519H3.18C2.64981 10.5519 2.22 10.1221 2.22 9.59194V2.25694C2.22 1.72675 1.79019 1.29694 1.26 1.29694H0.96ZM36.945 8.00194C36.945 7.47175 36.5152 7.04194 35.985 7.04194H35.6062C35.2024 7.04194 34.875 7.36932 34.875 7.77316C34.875 8.48327 33.8899 8.83019 33.3456 8.37403C32.9256 8.02193 32.4804 7.72291 32.01 7.47694C30.93 6.90694 29.72 6.62194 28.38 6.62194C26.06 6.62194 24.075 7.45694 22.425 9.12694C20.775 10.7969 19.95 12.8069 19.95 15.1569C19.95 17.5569 20.765 19.5969 22.395 21.2769C24.035 22.9469 26.01 23.7819 28.32 23.7819C29.62 23.7819 30.815 23.5119 31.905 22.9719C32.4333 22.7126 32.9361 22.3922 33.4136 22.0106C33.9563 21.5771 34.875 21.9273 34.875 22.6219C34.875 23.0306 35.2063 23.3619 35.6151 23.3619H35.985C36.5152 23.3619 36.945 22.9321 36.945 22.4019V8.00194ZM25.305 9.51694C26.295 8.93694 27.375 8.64694 28.545 8.64694C30.365 8.64694 31.895 9.28194 33.135 10.5519C34.385 11.8219 35.01 13.4019 35.01 15.2919C35.01 16.5319 34.73 17.6469 34.17 18.6369C33.62 19.6269 32.83 20.4119 31.8 20.9919C30.77 21.5719 29.68 21.8619 28.53 21.8619C27.39 21.8619 26.32 21.5719 25.32 20.9919C24.33 20.4019 23.54 19.5819 22.95 18.5319C22.36 17.4819 22.065 16.3819 22.065 15.2319C22.065 14.0719 22.355 12.9719 22.935 11.9319C23.525 10.8919 24.315 10.0869 25.305 9.51694Z" fill="#4E4C4C"/>
<defs>
<linearGradient id="paint0_linear_1251_4455" x1="99.1233" y1="-7.35837" x2="99.1233" y2="30.0816" gradientUnits="userSpaceOnUse">
<stop stop-color="#215AD3"/>
<stop offset="1" stop-color="#4695E1"/>
</linearGradient>
<linearGradient id="paint1_linear_1251_4455" x1="99.1233" y1="-7.35837" x2="99.1233" y2="30.0816" gradientUnits="userSpaceOnUse">
<stop stop-color="#215AD3"/>
<stop offset="1" stop-color="#4695E1"/>
</linearGradient>
<linearGradient id="paint2_linear_1251_4455" x1="99.1233" y1="-7.35837" x2="99.1233" y2="30.0816" gradientUnits="userSpaceOnUse">
<stop stop-color="#215AD3"/>
<stop offset="1" stop-color="#4695E1"/>
</linearGradient>
</defs>
</svg>
