<svg width="56" height="56" viewBox="0 0 56 56" fill="none" xmlns="http://www.w3.org/2000/svg">
<g clip-path="url(#clip0_1911_9918)">
<path d="M44.1652 0.00280762H11.8317C5.29615 0.00280762 -0.00195312 5.30114 -0.00195312 11.8367V44.17C-0.00195312 50.7055 5.29615 56.0039 11.8317 56.0039H44.1652C50.7008 56.0039 55.9989 50.7055 55.9989 44.17V11.8367C55.9989 5.30114 50.7008 0.00280762 44.1652 0.00280762Z" fill="url(#paint0_linear_1911_9918)"/>
<path d="M26.8799 10.7732C25.132 10.7732 23.6912 12.2097 23.6912 13.9572V15.9048C23.2822 16.0518 22.8801 16.2174 22.488 16.4053L21.1166 15.03C19.8806 13.794 17.843 13.794 16.607 15.03L15.0253 16.6113C13.7893 17.8475 13.7893 19.8888 15.0253 21.125L16.3967 22.4918C16.2116 22.8846 16.0491 23.2857 15.9045 23.695H13.9568C12.2089 23.695 10.7681 25.1352 10.7681 26.8829V29.121C10.7681 30.8687 12.2089 32.3092 13.9568 32.3092H15.8961C16.0422 32.7171 16.2102 33.1162 16.3967 33.5078L15.0253 34.8834C13.7893 36.1191 13.7892 38.1565 15.0253 39.3923L16.607 40.9781C17.8431 42.2138 19.8806 42.2138 21.1166 40.9781L22.4838 39.6028C22.8778 39.7889 23.2804 39.9497 23.6912 40.0946V42.0422C23.6912 43.7896 25.132 45.2349 26.8799 45.2349H29.1179C30.8657 45.2349 32.3066 43.7896 32.3066 42.0422V40.1075C32.7165 39.9605 33.1126 39.7865 33.5055 39.5983L34.8811 40.9781C36.1171 42.2138 38.1589 42.2138 39.3949 40.9781L40.9724 39.3923C42.2086 38.1565 42.2084 36.1191 40.9724 34.8834L39.6053 33.512C39.7904 33.119 39.9528 32.7187 40.0974 32.3092H42.041C43.7888 32.3092 45.2297 30.8687 45.2297 29.121V26.8829C45.2297 25.1352 43.7888 23.695 42.041 23.695H40.0974C39.9506 23.2875 39.7881 22.8865 39.601 22.4958L40.9724 21.125C42.2084 19.8888 42.2084 17.8475 40.9724 16.6113L39.3949 15.03C38.1589 13.794 36.1171 13.794 34.8811 15.03L33.5097 16.4013C33.1159 16.2153 32.7171 16.0497 32.3066 15.9048V13.9572C32.3066 12.2097 30.8657 10.7732 29.1179 10.7732H26.8799ZM26.8799 12.9268H29.1179C29.7105 12.9268 30.1527 13.3646 30.1527 13.9572V16.62C30.1532 16.8547 30.2303 17.0826 30.3723 17.2694C30.5143 17.4562 30.7134 17.5914 30.9394 17.6547C31.7435 17.8798 32.5183 18.2007 33.2489 18.6052C33.4535 18.7182 33.6893 18.7615 33.9207 18.7288C34.1522 18.6961 34.3667 18.5891 34.5319 18.4237L36.4039 16.5519C36.8229 16.1327 37.4489 16.1327 37.8679 16.5519L39.4496 18.1333C39.8687 18.5525 39.8687 19.1782 39.4496 19.5972L37.565 21.4774C37.3991 21.6443 37.2924 21.8608 37.2613 22.094C37.2302 22.3272 37.2762 22.5643 37.3925 22.7689C37.8019 23.4961 38.1249 24.2676 38.3559 25.0697C38.4208 25.2947 38.5574 25.4923 38.7449 25.6327C38.9325 25.7731 39.1606 25.8487 39.3949 25.8478H42.041C42.6336 25.8478 43.0758 26.29 43.0758 26.8824V29.1201C43.0758 29.7125 42.6336 30.155 42.041 30.155H39.3823C39.147 30.1546 38.9179 30.2311 38.7303 30.3731C38.5427 30.5152 38.4067 30.7149 38.3432 30.9415C38.1177 31.7456 37.8013 32.5203 37.3967 33.2507C37.2836 33.4552 37.24 33.6908 37.2727 33.9222C37.3053 34.1537 37.4123 34.3682 37.5776 34.5335L39.4496 36.4053C39.8686 36.8243 39.8685 37.4502 39.4496 37.8689L37.8679 39.4506C37.4489 39.8693 36.8229 39.8693 36.4039 39.4506L34.5235 37.5703C34.3572 37.4038 34.1408 37.2964 33.9076 37.2644C33.6743 37.2325 33.4371 37.278 33.232 37.3937C32.5046 37.8028 31.7331 38.126 30.9309 38.3568C30.7066 38.4216 30.5093 38.5574 30.3689 38.744C30.2286 38.9306 30.1527 39.1579 30.1527 39.3914V42.0413C30.1527 42.6339 29.7105 43.0762 29.1178 43.0762H26.8799C26.2872 43.0762 25.845 42.6339 25.845 42.0413V39.383C25.8445 39.1484 25.7673 38.9204 25.6253 38.7336C25.4833 38.5469 25.2843 38.4116 25.0583 38.3484C24.2542 38.1233 23.4794 37.8063 22.7488 37.4018C22.5447 37.2882 22.3092 37.244 22.0778 37.2759C21.8463 37.3078 21.6315 37.4141 21.4658 37.5787L19.5938 39.4506C19.1748 39.8693 18.5488 39.8693 18.1298 39.4506L16.5481 37.865C16.1292 37.4463 16.1291 36.8243 16.5481 36.4053L18.4243 34.5293C18.5906 34.3637 18.6982 34.1484 18.7309 33.9161C18.7635 33.6837 18.7194 33.447 18.6052 33.242C18.1969 32.5132 17.8755 31.7403 17.6461 30.9373C17.5818 30.7115 17.4456 30.5127 17.258 30.3715C17.0704 30.2302 16.8418 30.1543 16.607 30.155H13.9568C13.3641 30.155 12.9219 29.7125 12.9219 29.1201V26.8824C12.9219 26.29 13.3641 25.8433 13.9568 25.8433H16.6154C16.8502 25.8439 17.0788 25.768 17.2664 25.6268C17.454 25.4856 17.5903 25.2868 17.6545 25.061C17.88 24.2571 18.1964 23.4822 18.601 22.752C18.7142 22.5475 18.7578 22.3117 18.7251 22.0802C18.6925 21.8488 18.5854 21.6343 18.4201 21.469L16.5481 19.5972C16.1291 19.1782 16.1291 18.5525 16.5481 18.1333L18.1298 16.5519C18.5488 16.1327 19.1748 16.1327 19.5938 16.5519L21.4742 18.4322C21.6403 18.5977 21.8558 18.7047 22.0882 18.7367C22.3205 18.7686 22.5569 18.7238 22.7615 18.6091C23.4889 18.1998 24.2604 17.8768 25.0626 17.6457C25.2877 17.5817 25.4859 17.446 25.6271 17.2593C25.7683 17.0726 25.8448 16.8451 25.845 16.6111V13.957C25.845 13.3644 26.2872 12.9263 26.8799 12.9263L26.8799 12.9268ZM27.9989 21.5411C24.4431 21.5411 21.5375 24.4463 21.5373 28.0019C21.5373 31.5573 24.443 34.4628 27.9989 34.4628C31.5547 34.4628 34.4646 31.5573 34.4646 28.0019C34.4645 24.4463 31.5546 21.5411 27.9989 21.5411ZM27.9989 23.695C30.3906 23.695 32.3065 25.6104 32.3066 28.0019C32.3066 30.3932 30.3907 32.3092 27.9989 32.3092C25.607 32.3092 23.6912 30.3932 23.6912 28.0019C23.6913 25.6104 25.6071 23.695 27.9989 23.695Z" fill="#FFF98C"/>
</g>
<defs>
<linearGradient id="paint0_linear_1911_9918" x1="7.46862" y1="4.21097" x2="51.4616" y2="52.0127" gradientUnits="userSpaceOnUse">
<stop stop-color="#E0C45C"/>
<stop offset="1" stop-color="#CB3B3B"/>
</linearGradient>
<clipPath id="clip0_1911_9918">
<rect width="56" height="56" fill="white"/>
</clipPath>
</defs>
</svg>
