<svg xmlns="http://www.w3.org/2000/svg" viewBox="0 0 24 24"><path fill="#0277BD" d="M22 22H2a2 2 0 0 1-2-2V7a2 2 0 0 1 2-2h20a2 2 0 0 1 2 2v13a2 2 0 0 1-2 2z"/><path fill="#303C42" d="M17 7H7V4c0-1.103.897-2 2-2h6c1.103 0 2 .897 2 2v3zM9 5h6V4H9v1z"/><path fill="none" stroke="#3E3E3F" stroke-linecap="round" stroke-linejoin="round" stroke-miterlimit="10" d="M10.5 12.5H2A1.5 1.5 0 0 1 .5 11"/><linearGradient id="a" x1="7.653" x2="20.236" y1="16.933" y2="4.35" gradientTransform="matrix(1 0 0 -1 0 24)" gradientUnits="userSpaceOnUse"><stop offset="0" stop-color="#3E2723" stop-opacity=".2"/><stop offset="1" stop-color="#3E2723" stop-opacity=".02"/></linearGradient><path fill="url(#a)" d="M22 13H2a1.99 1.99 0 0 1-1.39-.566H.606L10.172 22H22a2 2 0 0 0 2-2v-9a2 2 0 0 1-2 2z"/><path fill="none" stroke="#3E3E3F" stroke-linecap="round" stroke-linejoin="round" stroke-miterlimit="10" d="M23.5 11a1.5 1.5 0 0 1-1.5 1.5h-8.5"/><path fill="#039BE5" d="M22 13H2a2 2 0 0 1-2-2V7a2 2 0 0 1 2-2h20a2 2 0 0 1 2 2v4a2 2 0 0 1-2 2z"/><path d="M22 21.75H2a2 2 0 0 1-2-2V20a2 2 0 0 0 2 2h20a2 2 0 0 0 2-2v-.25a2 2 0 0 1-2 2z" opacity=".1"/><path fill="#FFF" d="M22 5H2a2 2 0 0 0-2 2v.25a2 2 0 0 1 2-2h20a2 2 0 0 1 2 2V7a2 2 0 0 0-2-2z" opacity=".2"/><path d="M22 12.75H2a2 2 0 0 1-2-2V11a2 2 0 0 0 2 2h20a2 2 0 0 0 2-2v-.25a2 2 0 0 1-2 2z" opacity=".1"/><path fill="#F2F2F2" d="M13.5 11h-3a.5.5 0 0 0-.5.5v3a.5.5 0 0 0 .5.5h3a.5.5 0 0 0 .5-.5v-3a.5.5 0 0 0-.5-.5z"/><linearGradient id="b" x1="11.106" x2="12.689" y1="11.894" y2="10.311" gradientTransform="matrix(1 0 0 -1 0 24)" gradientUnits="userSpaceOnUse"><stop offset="0" stop-color="#3E2723" stop-opacity=".2"/><stop offset="1" stop-color="#3E2723" stop-opacity=".02"/></linearGradient><path fill="url(#b)" d="M11 12h2v2h-2z"/><linearGradient id="c" x1="-.517" x2="24.517" y1="16.337" y2="4.663" gradientTransform="matrix(1 0 0 -1 0 24)" gradientUnits="userSpaceOnUse"><stop offset="0" stop-color="#FFF" stop-opacity=".2"/><stop offset="1" stop-color="#FFF" stop-opacity="0"/></linearGradient><path fill="url(#c)" d="M22 5h-5V4c0-1.103-.897-2-2-2H9c-1.103 0-2 .897-2 2v1H2a2 2 0 0 0-2 2v13a2 2 0 0 0 2 2h20a2 2 0 0 0 2-2V7a2 2 0 0 0-2-2zM9 4h6v1H9V4z"/></svg>