<svg width="56" height="56" viewBox="0 0 56 56" fill="none" xmlns="http://www.w3.org/2000/svg">
<path d="M49 47.8333H32.6666V18.6666H44.3333C46.8988 18.6666 49 20.7678 49 23.3333V47.8333Z" fill="#1E88E5"/>
<path d="M32.6666 47.8334H49V50.1667H32.6666V47.8334Z" fill="#1976D2"/>
<path d="M39.6666 24.5H44.3333V29.1667H39.6666V24.5ZM39.6666 32.6667H44.3333V37.3333H39.6666V32.6667ZM39.6666 40.8333H44.3333V45.5H39.6666V40.8333Z" fill="#0D47A1"/>
<path d="M10.5 5.83337H33.8333V10.5H10.5V5.83337Z" fill="#64B5F6"/>
<path d="M37.3333 47.8334H7V11.6667C7 10.3834 8.05 9.33337 9.33333 9.33337H35C36.2833 9.33337 37.3333 10.3834 37.3333 11.6667V47.8334Z" fill="#90CAF9"/>
<path d="M7 47.8334H37.3333V50.1667H7V47.8334Z" fill="#64B5F6"/>
<path d="M19.8333 38.5H24.5V45.5H19.8333V38.5ZM11.6666 38.5H16.3333V45.5H11.6666V38.5ZM28 38.5H32.6666V45.5H28V38.5ZM19.8333 22.1667H24.5V26.8333H19.8333V22.1667ZM11.6666 22.1667H16.3333V26.8333H11.6666V22.1667ZM28 22.1667H32.6666V26.8333H28V22.1667ZM19.8333 30.3333H24.5V35H19.8333V30.3333ZM11.6666 30.3333H16.3333V35H11.6666V30.3333ZM28 30.3333H32.6666V35H28V30.3333ZM19.8333 14H24.5V18.6667H19.8333V14ZM11.6666 14H16.3333V18.6667H11.6666V14ZM28 14H32.6666V18.6667H28V14Z" fill="#1565C0"/>
<path d="M52.2281 19.7274V37.1334C52.2281 38.3644 51.2303 39.3608 50.0008 39.3608H6.89398C5.66448 39.3608 4.66663 38.3644 4.66663 37.1334V19.7274C4.66663 18.4964 5.66448 17.5 6.89398 17.5H50.0008C51.2304 17.5 52.2281 18.4964 52.2281 19.7274Z" fill="#F59831"/>
<path d="M10.1498 29.7118C10.1498 30.8307 10.5399 31.5335 11.711 31.5335C12.1273 31.5335 12.4657 31.4294 12.7907 31.221L12.9209 31.1431C13.0901 31.039 13.1811 30.948 13.4804 30.948C13.9746 30.948 14.3389 31.3122 14.3389 31.7287C14.3389 32.4834 13.025 33.1208 11.6457 33.1208C9.36904 33.1208 8.32812 31.7676 8.32812 29.7119V27.1359C8.32812 25.0805 9.36904 23.7273 11.6457 23.7273C13.025 23.7273 14.3389 24.3648 14.3389 25.1194C14.3389 25.5359 13.9746 25.9002 13.4804 25.9002C13.1811 25.9002 13.0901 25.8092 12.9209 25.7051L12.7907 25.6271C12.4657 25.4189 12.1271 25.3147 11.711 25.3147C10.5399 25.3147 10.1498 26.017 10.1498 27.1361V29.7118ZM19.8679 33.0166H16.1992C15.6785 33.0166 15.2233 32.6262 15.2233 32.1187V24.5599C15.2233 24.1176 15.6267 23.7273 16.1343 23.7273C16.6284 23.7273 17.045 24.1177 17.045 24.5599V31.3771H19.8681C20.3364 31.3771 20.7529 31.7286 20.7529 32.184C20.7528 32.6523 20.3624 33.0166 19.8679 33.0166ZM21.1426 29.7118V27.1358C21.1426 25.2884 22.0923 23.7272 24.525 23.7272C26.958 23.7272 27.9078 25.2884 27.9078 27.1358V29.7118C27.9078 31.6114 26.7758 33.1334 24.525 33.1334C22.2745 33.1334 21.1426 31.6114 21.1426 29.7118ZM22.9638 27.1359V29.7119C22.9638 30.7529 23.4583 31.4813 24.525 31.4813C25.5921 31.4813 26.0862 30.7529 26.0862 29.7119V27.1359C26.0862 26.0822 25.67 25.3796 24.525 25.3796C23.3803 25.3796 22.9638 26.0822 22.9638 27.1359ZM32.3175 29.4778C32.0443 29.3606 31.7189 29.2437 31.3678 29.1266C30.0928 28.7362 28.7138 28.3069 28.7138 26.4203C28.7138 24.742 29.8846 23.7272 31.732 23.7272C32.4997 23.7272 34.3471 23.9223 34.3471 24.8983C34.3471 25.3276 34.0089 25.718 33.4364 25.718C33.2021 25.718 33.0199 25.6397 32.7989 25.5747C32.5515 25.4837 32.2652 25.3796 31.81 25.3796C31.1725 25.3796 30.5742 25.6008 30.5742 26.3685C30.5742 26.9408 30.8993 27.1359 31.1207 27.24C31.4588 27.4091 31.7712 27.5132 32.0575 27.5912C33.3324 27.9946 34.7245 28.4368 34.7245 30.2844C34.7245 32.093 33.3455 33.1336 31.4851 33.1336C30.5222 33.1336 28.7009 32.7955 28.7009 31.8848C28.7009 31.4683 29.0782 31.0651 29.5596 31.0651C29.7544 31.0651 29.9627 31.1302 30.2101 31.2212C30.5222 31.3253 30.9386 31.4813 31.4981 31.4813C32.3958 31.4813 32.851 31.0782 32.851 30.3625C32.8509 29.7771 32.5517 29.5819 32.3175 29.4778ZM40.3575 33.0166H36.9097C36.2722 33.0166 35.6998 32.7953 35.6998 32.0928V24.7681C35.6998 24.3128 36.1291 23.8443 36.7015 23.8443H40.2273C40.7218 23.8443 41.138 24.2347 41.138 24.69C41.138 25.1583 40.7218 25.4966 40.2273 25.4966H37.521V27.591H39.9802C40.4355 27.591 40.8778 27.9425 40.8778 28.4109C40.8778 28.8789 40.4874 29.2434 39.9802 29.2434H37.521V31.364H40.3575C40.8386 31.364 41.2682 31.7283 41.2682 32.1706C41.2682 32.6393 40.8517 33.0166 40.3575 33.0166ZM44.6112 33.0166H43.1411C42.5947 33.0166 42.1263 32.587 42.1263 32.0798V24.7681C42.1263 24.2605 42.5947 23.8313 43.1411 23.8313H44.6112C47.5514 23.8313 48.5662 25.4446 48.5662 27.2529V29.4907C48.5662 31.3253 47.5645 33.0166 44.6112 33.0166ZM46.745 27.2531C46.745 26.2644 46.2374 25.4837 44.8326 25.4837H43.9477V31.3645H44.8326C46.2636 31.3645 46.745 30.5188 46.745 29.491V27.2531Z" fill="#F7F7F7"/>
</svg>
