<svg width="56" height="56" viewBox="0 0 56 56" fill="none" xmlns="http://www.w3.org/2000/svg">
<g clip-path="url(#clip0_1406_4789)">
<path fill-rule="evenodd" clip-rule="evenodd" d="M30.7626 2.46304L53.1341 13.6158C54.8891 14.4929 55.894 15.997 55.894 17.749V40.0568C55.894 41.8088 54.8891 43.3128 53.1341 44.1876L30.7626 55.3427C29.0048 56.2199 26.9952 56.2199 25.2374 55.3427L2.86866 44.1876C1.1109 43.3128 0.106079 41.8088 0.106079 40.0568V17.749C0.106079 15.997 1.1109 14.4929 2.86866 13.6158L25.2374 2.46304C26.9952 1.58589 29.0048 1.58589 30.7626 2.46304Z" fill="#1E88E5"/>
<path d="M40.1012 4.40686H-0.671265V51.7733H40.1012V4.40686Z" fill="#E1E3E8"/>
<path d="M21.9196 8.63818H14.3821V9.59019H21.9196V8.63818Z" fill="#AFB0B5"/>
<path d="M15.395 12.6077H5.65015V13.4357H15.395V12.6077Z" fill="#AFB0B5"/>
<path d="M10.5226 14.4556H5.65015V15.2836H10.5226V14.4556Z" fill="#AFB0B5"/>
<path d="M13.1877 16.3058H5.65015V17.1338H13.1877V16.3058Z" fill="#AFB0B5"/>
<path d="M25.6247 20.8646H5.65015V21.6927H25.6247V20.8646Z" fill="#AFB0B5"/>
<path d="M13.7402 23.5288H5.65015V24.3568H13.7402V23.5288Z" fill="#AFB0B5"/>
<path d="M33.7797 26.703H5.65015V27.531H33.7797V26.703Z" fill="#AFB0B5"/>
<path d="M33.7797 29.1987H5.65015V30.0268H33.7797V29.1987Z" fill="#AFB0B5"/>
<path d="M25.4134 31.6946H5.65015V32.5226H25.4134V31.6946Z" fill="#AFB0B5"/>
<path d="M33.7797 35.0394H5.65015V35.8675H33.7797V35.0394Z" fill="#AFB0B5"/>
<path d="M33.7797 37.5353H5.65015V38.3633H33.7797V37.5353Z" fill="#AFB0B5"/>
<path d="M25.4134 40.0311H5.65015V40.8592H25.4134V40.0311Z" fill="#AFB0B5"/>
<path d="M34.1481 12.6077H30.313V13.4357H34.1481V12.6077Z" fill="#AFB0B5"/>
<path fill-rule="evenodd" clip-rule="evenodd" d="M46.8316 37.0721L46.1979 34.6605H46.8316H47.4681L46.8316 37.0721Z" fill="#E1E3E8"/>
<path fill-rule="evenodd" clip-rule="evenodd" d="M46.8315 34.6605V37.0721L47.468 34.6605H46.8315Z" fill="#C5C7CB"/>
<path fill-rule="evenodd" clip-rule="evenodd" d="M45.6237 2.09119H48.0396C48.6327 2.09119 49.1148 2.50754 49.1148 3.0198V14.5515C49.1148 14.5515 48.8304 28.3521 47.7092 34.4641C47.6875 34.5787 47.5764 34.6606 47.4437 34.6606H46.2222C46.0895 34.6606 45.9785 34.5787 45.9568 34.4641C44.8355 28.3521 44.5511 14.5515 44.5511 14.5515V3.0198C44.5511 2.50754 45.0332 2.09119 45.6237 2.09119Z" fill="#4D4D4D"/>
<path d="M49.1148 13.4731H44.5511V14.5515H49.1148V13.4731Z" fill="#C5C7CB"/>
<path fill-rule="evenodd" clip-rule="evenodd" d="M45.6237 2.09114H48.0396V0.498225C48.0396 0.224552 47.7823 0 47.4654 0H46.2006C45.8837 0 45.6237 0.224552 45.6237 0.498225V2.09114ZM44.5511 3.95539H49.1148L50.3986 4.88635C50.7751 5.15768 50.9728 5.52492 50.9728 5.95063V14.9935L50.1251 14.6216V13.707L50.4365 13.1831V6.47692C50.4365 6.00911 50.1928 5.60444 49.7486 5.33545L49.1148 4.95418H44.5511V3.95539Z" fill="#C5C7CB"/>
<path d="M33.7797 41.8369H29.9446V42.6649H33.7797V41.8369Z" fill="#AFB0B5"/>
<path d="M16.3727 47.0553C16.3484 47.1559 16.2346 47.2214 16.1208 47.2003C16.0044 47.1793 15.9285 47.081 15.9529 46.9805C15.9556 46.9688 16.9632 42.6929 19.3953 45.3922C19.7582 45.7945 19.9343 46.1735 19.983 46.5243C20.4787 46.2156 20.866 46.0378 21.1639 45.9747C21.8383 45.8273 22.1308 46.129 22.1958 46.7372C22.2283 47.0296 22.8675 47.1021 23.504 47.0506C23.6123 47.0436 23.7207 47.0296 23.8236 47.0132C23.7586 46.9781 23.7071 46.943 23.6638 46.9079C23.4634 46.7395 23.4417 46.5547 23.5338 46.391C23.5365 46.3863 23.5392 46.3793 23.5446 46.3746C23.6286 46.2343 23.8073 46.122 24.0186 46.0635C24.3544 45.97 24.7986 46.0027 25.1019 46.2881C25.3538 46.5243 25.3159 46.7489 25.0965 46.943C25.2644 46.9617 25.4567 46.9734 25.668 46.9828C26.1203 47.0038 26.5157 47.0179 26.8597 47.0272L31.4153 45.8203C31.529 45.7899 31.6482 45.846 31.6834 45.9442C31.7186 46.0425 31.6536 46.1454 31.5398 46.1758L28.2302 47.0506C28.6608 47.0576 28.9154 47.0647 29.0725 47.1021C29.4408 47.1863 29.4327 47.329 29.3379 47.6331C29.1537 48.2202 27.5124 48.6669 27.507 48.6693C27.4908 48.674 27.4745 48.6763 27.4556 48.6763L20.9229 48.978C20.8037 48.9851 20.7008 48.9055 20.6954 48.8026C20.6899 48.7114 20.7604 48.6342 20.8606 48.6131L25.622 47.3524C25.1751 47.3337 24.8149 47.2916 24.5251 47.2354C24.4844 47.2471 24.4438 47.2611 24.4032 47.2728C24.1459 47.3454 23.8452 47.3968 23.5446 47.4202C22.6887 47.4904 21.8275 47.322 21.7679 46.7699C21.7327 46.4355 21.5891 46.2647 21.2695 46.3349C20.9689 46.4004 20.5464 46.6085 19.9749 46.9898C19.9235 47.2705 19.7962 47.5255 19.6309 47.743C19.3493 48.1102 18.9566 48.3769 18.6478 48.5032C18.1332 48.7184 17.7838 48.6342 17.9219 48.2272C17.9219 48.2202 17.9274 48.2108 17.9301 48.2038C17.9924 48.0494 18.2009 47.8108 18.6234 47.4834C18.9674 47.219 19.2761 46.9922 19.5578 46.8003C19.5768 46.4518 19.4441 46.0518 19.0568 45.6215C17.1988 43.5607 16.3754 47.046 16.3727 47.0553ZM19.2707 47.5395C19.2978 47.5044 19.3249 47.467 19.3493 47.4296C19.2084 47.5325 19.0622 47.6424 18.9105 47.7617C18.5476 48.0401 18.377 48.2202 18.339 48.3184L18.3363 48.3278C18.3092 48.4026 18.4149 48.1898 18.4609 48.1687C18.7155 48.0635 19.0378 47.8459 19.2707 47.5395ZM24.4844 46.8495C24.6036 46.805 24.7011 46.7536 24.7661 46.7021C24.8284 46.6506 24.8446 46.5945 24.7851 46.5384C24.6117 46.377 24.3517 46.3606 24.1513 46.4167C24.043 46.4471 23.9563 46.4939 23.9238 46.5477L23.9211 46.5547C23.9102 46.5781 23.9238 46.6062 23.9644 46.6413C24.0538 46.7161 24.219 46.7887 24.4844 46.8495ZM28.0324 47.4202C27.7372 47.4155 27.3689 47.4108 26.9139 47.3992L22.6508 48.5266L27.4068 48.3067C27.5937 48.2553 28.8071 47.8997 28.9208 47.5372C28.9398 47.481 28.9723 47.4623 28.9614 47.46C28.8287 47.4296 28.5443 47.4272 28.0324 47.4202Z" fill="#8E8E93"/>
</g>
<defs>
<clipPath id="clip0_1406_4789">
<rect width="56" height="56" fill="white"/>
</clipPath>
</defs>
</svg>
