<svg width="56" height="56" viewBox="0 0 56 56" fill="none" xmlns="http://www.w3.org/2000/svg">
<path d="M47.7969 55.4531H8.20312L0.546875 28.9844H8.20312L47.7969 55.4531Z" fill="#275E87"/>
<path d="M41.0156 0.546875H8.20312V46.4844H41.0156V0.546875Z" fill="#69BDFB"/>
<path d="M44.4062 5.03125H11.5938V50.9688H44.4062V5.03125Z" fill="#9CD3FC"/>
<path d="M47.7969 55.4531V16.2969L41.0156 9.51562H14.9844V55.4531H47.7969Z" fill="#CDE9FE"/>
<path d="M41.0156 16.2969H47.7969L41.0156 9.51562V16.2969Z" fill="#69BDFB"/>
<path d="M41.0156 20.3438H21.7656V21.4375H41.0156V20.3438Z" fill="#3279AF"/>
<path d="M41.0156 24.8281H21.7656V25.9219H41.0156V24.8281Z" fill="#3279AF"/>
<path d="M41.0156 29.4219H21.7656V30.5156H41.0156V29.4219Z" fill="#3279AF"/>
<path d="M55.4531 28.9844L47.7969 55.4531H8.20312L15.8594 34.4531H38.8281L41.0156 28.9844H55.4531Z" fill="#3279AF"/>
<path d="M51.0781 28.9844C51.0781 28.9844 43.9688 49 16.625 55.4531H47.7969L55.4531 28.9844H51.0781Z" fill="#275E87"/>
</svg>
