<svg width="64" height="65" viewBox="0 0 64 65" fill="none" xmlns="http://www.w3.org/2000/svg">
<path d="M7.55992 24.9049C7.67669 24.6791 7.77695 24.4451 7.85992 24.2049C8.73992 21.4849 7.19992 17.4849 8.83992 15.2249C10.5199 12.9249 14.7999 13.1849 17.0799 11.5049C19.3399 9.86487 20.4199 5.70487 23.1599 4.82487C25.7799 3.96487 29.0799 6.66487 31.9999 6.66487C34.9199 6.66487 38.2199 3.96487 40.8399 4.82487C43.5799 5.70487 44.6599 9.86487 46.9199 11.5049C49.1999 13.1849 53.4799 12.9249 55.1599 15.2249C56.7999 17.4849 55.2599 21.4849 56.1399 24.2049C56.2529 24.5456 56.4003 24.874 56.5799 25.1849L7.55992 24.9049ZM7.41992 38.9049C7.59951 39.2157 7.74694 39.5441 7.85992 39.8849C8.73992 42.6049 7.19992 46.6049 8.83992 48.8649C10.5199 51.1649 14.7999 50.9049 17.0799 52.5849C19.3399 54.2249 20.4199 58.3849 23.1599 59.2649C25.7799 60.1249 29.0799 57.4249 31.9999 57.4249C34.9199 57.4249 38.2199 60.1249 40.8399 59.2649C43.5799 58.3849 44.6599 54.2249 46.9199 52.5849C49.1999 50.9049 53.4799 51.1649 55.1599 48.8649C56.7999 46.6049 55.2599 42.6049 56.1399 39.8849C56.2229 39.6446 56.3231 39.4107 56.4399 39.1849" fill="#1E88E5"/>
<path d="M48.1301 39.1249C47.8616 39.7426 47.5564 40.3437 47.216 40.9249C45.5718 43.7465 43.1753 46.0553 40.2944 47.5933C37.4134 49.1313 34.1616 49.838 30.9022 49.6342C27.6428 49.4304 24.5043 48.3243 21.8373 46.4395C19.1704 44.5546 17.0801 41.9653 15.8 38.9609L48.1301 39.1249ZM15.87 24.9649C16.1385 24.3472 16.4437 23.7461 16.784 23.1649C18.429 20.344 20.8259 18.0361 23.7069 16.4989C26.5879 14.9618 29.8396 14.2559 33.0987 14.4603C36.3577 14.6647 39.4958 15.7712 42.1622 17.6563C44.8286 19.5413 46.9184 22.1306 48.1981 25.1349" fill="#0D47A1"/>
<path d="M60.55 39.1848L3.44395 38.9048C3.09222 38.9029 2.7472 38.8083 2.4437 38.6305C2.14021 38.4527 1.88897 38.198 1.71533 37.8921C1.5417 37.5863 1.4518 37.24 1.45472 36.8883C1.45764 36.5365 1.55326 36.1918 1.73195 35.8888L3.41795 33.0268C3.59451 32.727 3.68977 32.3862 3.69433 32.0383C3.69889 31.6903 3.61259 31.3472 3.44395 31.0428L1.68995 27.8748C1.52064 27.5695 1.43418 27.2253 1.43917 26.8762C1.44416 26.5272 1.54042 26.1855 1.71838 25.8852C1.89635 25.5849 2.14982 25.3364 2.45359 25.1644C2.75737 24.9924 3.10087 24.9029 3.44995 24.9048L60.556 25.1848C60.9077 25.1867 61.2527 25.2813 61.5562 25.4591C61.8597 25.6369 62.1109 25.8916 62.2846 26.1975C62.4582 26.5034 62.5481 26.8497 62.5452 27.2014C62.5423 27.5531 62.4466 27.8978 62.268 28.2008L60.582 31.0628C60.4054 31.3627 60.3101 31.7034 60.3056 32.0514C60.301 32.3993 60.3873 32.7424 60.556 33.0468L62.312 36.2168C62.4809 36.5222 62.5669 36.8664 62.5616 37.2154C62.5563 37.5643 62.4598 37.9057 62.2816 38.2058C62.1035 38.5059 61.8499 38.7541 61.5461 38.9259C61.2423 39.0976 60.8989 39.1869 60.55 39.1848Z" fill="#F59831"/>
<path d="M37 28.0449C36.3817 28.0475 35.7794 28.241 35.2753 28.599C34.7712 28.957 34.3901 29.462 34.184 30.0449H23C22.7348 30.0449 22.4804 30.1503 22.2929 30.3378C22.1054 30.5254 22 30.7797 22 31.0449V35.0449C22 35.3102 22.1054 35.5645 22.2929 35.7521C22.4804 35.9396 22.7348 36.0449 23 36.0449C23.2652 36.0449 23.5196 35.9396 23.7071 35.7521C23.8946 35.5645 24 35.3102 24 35.0449V32.0449H26V35.0449C26 35.3102 26.1054 35.5645 26.2929 35.7521C26.4804 35.9396 26.7348 36.0449 27 36.0449C27.2652 36.0449 27.5196 35.9396 27.7071 35.7521C27.8946 35.5645 28 35.3102 28 35.0449V32.0449H34.184C34.3675 32.564 34.6903 33.0225 35.117 33.3703C35.5438 33.7181 36.058 33.9418 36.6034 34.0169C37.1487 34.092 37.7043 34.0155 38.2091 33.7959C38.7139 33.5763 39.1486 33.222 39.4655 32.7719C39.7824 32.3217 39.9693 31.793 40.0058 31.2437C40.0423 30.6944 39.9269 30.1457 39.6723 29.6575C39.4177 29.1694 39.0338 28.7608 38.5624 28.4764C38.091 28.1919 37.5505 28.0427 37 28.0449ZM37 32.0449C36.8022 32.0449 36.6089 31.9863 36.4444 31.8764C36.28 31.7665 36.1518 31.6104 36.0761 31.4276C36.0004 31.2449 35.9806 31.0438 36.0192 30.8499C36.0578 30.6559 36.153 30.4777 36.2929 30.3378C36.4327 30.198 36.6109 30.1027 36.8049 30.0642C36.9989 30.0256 37.2 30.0454 37.3827 30.1211C37.5654 30.1968 37.7216 30.3249 37.8315 30.4894C37.9414 30.6538 38 30.8472 38 31.0449C38 31.3102 37.8946 31.5645 37.7071 31.7521C37.5196 31.9396 37.2652 32.0449 37 32.0449Z" fill="white"/>
</svg>
