<svg width="64" height="65" viewBox="0 0 64 65" fill="none" xmlns="http://www.w3.org/2000/svg">
<path d="M55.9999 21.3783H18.6666C17.9593 21.3783 17.281 21.0973 16.7809 20.5972C16.2809 20.0971 15.9999 19.4188 15.9999 18.7116C15.9999 18.0043 16.2809 17.3261 16.7809 16.826C17.281 16.3259 17.9593 16.0449 18.6666 16.0449H55.9999C56.7071 16.0449 57.3854 16.3259 57.8855 16.826C58.3856 17.3261 58.6666 18.0043 58.6666 18.7116C58.6666 19.4188 58.3856 20.0971 57.8855 20.5972C57.3854 21.0973 56.7071 21.3783 55.9999 21.3783ZM55.9999 34.7116H18.6666C17.9593 34.7116 17.281 34.4306 16.7809 33.9305C16.2809 33.4304 15.9999 32.7522 15.9999 32.0449C15.9999 31.3377 16.2809 30.6594 16.7809 30.1593C17.281 29.6592 17.9593 29.3783 18.6666 29.3783H55.9999C56.7071 29.3783 57.3854 29.6592 57.8855 30.1593C58.3856 30.6594 58.6666 31.3377 58.6666 32.0449C58.6666 32.7522 58.3856 33.4304 57.8855 33.9305C57.3854 34.4306 56.7071 34.7116 55.9999 34.7116ZM55.9999 48.0449H18.6666C17.9593 48.0449 17.281 47.764 16.7809 47.2639C16.2809 46.7638 15.9999 46.0855 15.9999 45.3783C15.9999 44.671 16.2809 43.9927 16.7809 43.4926C17.281 42.9925 17.9593 42.7116 18.6666 42.7116H55.9999C56.7071 42.7116 57.3854 42.9925 57.8855 43.4926C58.3856 43.9927 58.6666 44.671 58.6666 45.3783C58.6666 46.0855 58.3856 46.7638 57.8855 47.2639C57.3854 47.764 56.7071 48.0449 55.9999 48.0449ZM7.9999 21.3783C7.65108 21.3741 7.30646 21.3016 6.98558 21.1647C6.66282 21.0296 6.36554 20.8402 6.10657 20.6049C5.87107 20.3454 5.68132 20.0477 5.54537 19.7247C5.40539 19.4053 5.33313 19.0604 5.33313 18.7117C5.33313 18.363 5.40539 18.0181 5.54537 17.6987C5.68068 17.3753 5.8705 17.0775 6.10657 16.8183C6.48108 16.4476 6.95722 16.1965 7.47462 16.0968C7.99203 15.9971 8.52738 16.0533 9.01281 16.2583C9.33924 16.3872 9.63807 16.5773 9.89323 16.8183C10.1285 17.0778 10.3179 17.3754 10.4532 17.6985C10.5941 18.0176 10.6668 18.3626 10.6668 18.7115C10.6668 19.0603 10.5941 19.4053 10.4532 19.7245C10.3173 20.0473 10.1279 20.3449 9.89323 20.6049C9.64478 20.8531 9.34941 21.0492 9.02434 21.182C8.69927 21.3148 8.35102 21.3815 7.9999 21.3783ZM7.9999 34.7116C7.65108 34.7074 7.30646 34.6349 6.98558 34.498C6.66282 34.3629 6.36554 34.1736 6.10657 33.9383C5.87107 33.6787 5.68132 33.3811 5.54537 33.058C5.40539 32.7387 5.33313 32.3937 5.33313 32.045C5.33313 31.6963 5.40539 31.3514 5.54537 31.032C5.67443 30.7054 5.86493 30.4065 6.10657 30.1516C6.36549 29.9162 6.66274 29.7268 6.98547 29.5916C7.47115 29.3866 8.00673 29.3305 8.52437 29.4301C9.04201 29.5298 9.51841 29.7809 9.89323 30.1516C10.134 30.4068 10.3241 30.7055 10.4532 31.0318C10.5941 31.351 10.6668 31.696 10.6668 32.0448C10.6668 32.3937 10.5941 32.7387 10.4532 33.0578C10.3172 33.3806 10.1279 33.6781 9.89323 33.938C9.63384 34.1735 9.33616 34.3628 9.01302 34.498C8.69252 34.6348 8.34832 34.7073 7.9999 34.7116ZM7.9999 48.0449C7.65108 48.0408 7.30646 47.9682 6.98558 47.8314C6.66282 47.6962 6.36554 47.5069 6.10657 47.2716C5.73367 46.8985 5.48096 46.4223 5.38095 45.9044C5.28093 45.3865 5.3382 44.8505 5.54537 44.3653C5.67443 44.0387 5.86493 43.7398 6.10657 43.4849C6.36098 43.2437 6.65935 43.0536 6.98547 42.9249C7.63463 42.6567 8.36365 42.6567 9.01281 42.9249C9.33917 43.0539 9.63792 43.244 9.89302 43.4849C10.1338 43.7402 10.3239 44.0389 10.453 44.3651C10.6611 44.85 10.719 45.3862 10.6192 45.9043C10.5194 46.4224 10.2665 46.8987 9.89323 47.2716C9.63384 47.507 9.33616 47.6964 9.01302 47.8316C8.69251 47.9682 8.34831 48.0407 7.9999 48.0449Z" fill="#1E88E5"/>
</svg>
