<svg xmlns="http://www.w3.org/2000/svg" width="100" height="100" enable-background="new 0 0 100 100" viewBox="0 0 100 100"><path fill="#A4ABB1" d="M76.937,29.5v-1c0-3.3-2.7-6-6-6h-6.75c-3.3,0-6,2.7-6,6v1H76.937z"/><path fill="#DADEE0" d="M83,29.5H46v56h43v-50C89,32.2,86.3,29.5,83,29.5z"/><polygon fill="#C7CED2" points="46.042 29.5 46 29.5 46 85.5 89 85.5 89 72.376"/><path fill="#7D8790" d="M92.5,85.5h-85C6.671,85.5,6,86.172,6,87s0.671,1.5,1.5,1.5h85c0.829,0,1.5-0.672,1.5-1.5
		S93.329,85.5,92.5,85.5z"/><path fill="#1BB7EA" d="M46,85.5v-68c0-3.3-2.7-6-6-6H17c-3.3,0-6,2.7-6,6v68H46z"/><path fill="#1F4254" d="M21 75h15c.829 0 1.5-.672 1.5-1.5 0-.829-.671-1.5-1.5-1.5H21c-.829 0-1.5.671-1.5 1.5C19.5 74.328 20.171 75 21 75M21 65h15c.829 0 1.5-.672 1.5-1.5 0-.829-.671-1.5-1.5-1.5H21c-.829 0-1.5.671-1.5 1.5C19.5 64.328 20.171 65 21 65M21 55h15c.829 0 1.5-.672 1.5-1.5 0-.829-.671-1.5-1.5-1.5H21c-.829 0-1.5.671-1.5 1.5C19.5 54.328 20.171 55 21 55M21 45h15c.829 0 1.5-.672 1.5-1.5 0-.829-.671-1.5-1.5-1.5H21c-.829 0-1.5.671-1.5 1.5C19.5 44.328 20.171 45 21 45M21 35h15c.829 0 1.5-.672 1.5-1.5 0-.829-.671-1.5-1.5-1.5H21c-.829 0-1.5.671-1.5 1.5C19.5 34.328 20.171 35 21 35M21 25h15c.829 0 1.5-.672 1.5-1.5 0-.829-.671-1.5-1.5-1.5H21c-.829 0-1.5.671-1.5 1.5C19.5 24.328 20.171 25 21 25M54 75h7c.829 0 1.5-.672 1.5-1.5 0-.829-.671-1.5-1.5-1.5h-7c-.829 0-1.5.671-1.5 1.5C52.5 74.328 53.171 75 54 75M54 65h7c.829 0 1.5-.672 1.5-1.5 0-.829-.671-1.5-1.5-1.5h-7c-.829 0-1.5.671-1.5 1.5C52.5 64.328 53.171 65 54 65M54 55h7c.829 0 1.5-.672 1.5-1.5 0-.829-.671-1.5-1.5-1.5h-7c-.829 0-1.5.671-1.5 1.5C52.5 54.328 53.171 55 54 55M54 45h7c.829 0 1.5-.672 1.5-1.5 0-.829-.671-1.5-1.5-1.5h-7c-.829 0-1.5.671-1.5 1.5C52.5 44.328 53.171 45 54 45M70 75h7c.829 0 1.5-.672 1.5-1.5 0-.829-.671-1.5-1.5-1.5h-7c-.829 0-1.5.671-1.5 1.5C68.5 74.328 69.171 75 70 75M70 65h7c.829 0 1.5-.672 1.5-1.5 0-.829-.671-1.5-1.5-1.5h-7c-.829 0-1.5.671-1.5 1.5C68.5 64.328 69.171 65 70 65M70 55h7c.829 0 1.5-.672 1.5-1.5 0-.829-.671-1.5-1.5-1.5h-7c-.829 0-1.5.671-1.5 1.5C68.5 54.328 69.171 55 70 55M70 45h7c.829 0 1.5-.672 1.5-1.5 0-.829-.671-1.5-1.5-1.5h-7c-.829 0-1.5.671-1.5 1.5C68.5 44.328 69.171 45 70 45"/></svg>