<svg width="64" height="65" viewBox="0 0 64 65" fill="none" xmlns="http://www.w3.org/2000/svg">
<path fill-rule="evenodd" clip-rule="evenodd" d="M15 58.0452H49H53C55.216 58.0452 57 56.2612 57 54.0452V52.0452H19V54.0452C19 56.2612 17.216 58.0452 15 58.0452Z" fill="#D2DCE9"/>
<path fill-rule="evenodd" clip-rule="evenodd" d="M57 52.0452H19V54.0452C19 56.2612 17.216 58.0452 15 58.0452C12.784 58.0452 11 56.2612 11 54.0452V50.0452V12.5803V12.0452C11 9.82917 9.21603 8.04517 7.00003 8.04517C4.78403 8.04517 7.00003 8.04517 7.00003 8.04517H45C47.216 8.04517 49 9.82917 49 12.0452V16.0452L48.994 52.0439" fill="#F0F4F7"/>
<path fill-rule="evenodd" clip-rule="evenodd" d="M11 12.5803V12.0452C11 9.82917 9.216 8.04517 7 8.04517C4.784 8.04517 3 9.82917 3 12.0452V14.0452H11" fill="#D2DCE9"/>
<path fill-rule="evenodd" clip-rule="evenodd" d="M22 13.0435V15.0435H28V13.0435H22Z" fill="#0C5286"/>
<path fill-rule="evenodd" clip-rule="evenodd" d="M16 19.0435V21.0435H22V19.0435H16ZM16 23.0435V25.0435H20V23.0435H16ZM16 27.0435V29.0435H24V27.0435H16ZM16 31.0435V33.0435H24V31.0435H16ZM16 35.0435V37.0435H24V35.0435H16ZM16 39.0435V41.0435H24V39.0435H16Z" fill="#406B95"/>
<path fill-rule="evenodd" clip-rule="evenodd" d="M56.9998 23.9531V48.0452H26.9998V23.9531" fill="#1E88E5"/>
<path d="M52.9993 16.7048V11.0452H57.0003V20.428" fill="#1E88E5"/>
<path d="M41.5558 4.04517L61.0003 24.0449H22.1113L41.5558 4.04517ZM37.9998 33.0452H45.9998V48.0452H37.9998V33.0452Z" fill="#0D47A1"/>
</svg>
