<svg width="56" height="56" viewBox="0 0 56 56" fill="none" xmlns="http://www.w3.org/2000/svg">
<circle cx="28" cy="28" r="28" fill="#F1F4FE"/>
<circle cx="28" cy="28" r="20" fill="#EBEEFD"/>
<path d="M37.0001 20.4099L37.7101 19.7099C37.8984 19.5216 38.0042 19.2662 38.0042 18.9999C38.0042 18.7336 37.8984 18.4782 37.7101 18.2899C37.5218 18.1016 37.2664 17.9958 37.0001 17.9958C36.7338 17.9958 36.4784 18.1016 36.2901 18.2899L34.8901 19.6999L32.0601 22.5299L25.7501 28.8299C24.7161 28.1478 23.4658 27.8737 22.2413 28.0608C21.0168 28.248 19.9053 28.883 19.1223 29.8428C18.3393 30.8026 17.9404 32.0189 18.003 33.2561C18.0656 34.4932 18.5851 35.6631 19.4611 36.539C20.337 37.4149 21.5068 37.9345 22.744 37.9971C23.9811 38.0597 25.1974 37.6608 26.1572 36.8778C27.1171 36.0947 27.7521 34.9833 27.9392 33.7588C28.1263 32.5343 27.8523 31.2839 27.1701 30.2499L32.7601 24.6499L34.8801 26.7799C34.9733 26.8725 35.0839 26.9458 35.2055 26.9957C35.327 27.0455 35.4572 27.071 35.5886 27.0705C35.72 27.07 35.85 27.0437 35.9713 26.993C36.0925 26.9423 36.2025 26.8682 36.2951 26.7749C36.3877 26.6817 36.461 26.5711 36.5108 26.4496C36.5607 26.328 36.5861 26.1978 36.5857 26.0664C36.5852 25.935 36.5588 25.805 36.5081 25.6838C36.4574 25.5626 36.3833 25.4525 36.2901 25.3599L34.1701 23.2399L35.5901 21.8299L36.2901 22.5299C36.3827 22.6232 36.4927 22.6973 36.6139 22.748C36.7352 22.7987 36.8652 22.825 36.9966 22.8255C37.128 22.826 37.2582 22.8005 37.3797 22.7507C37.5013 22.7008 37.6119 22.6275 37.7051 22.5349C37.7983 22.4424 37.8724 22.3323 37.9231 22.2111C37.9738 22.0899 38.0002 21.9599 38.0007 21.8285C38.0011 21.6971 37.9757 21.5669 37.9258 21.4453C37.876 21.3237 37.8027 21.2132 37.7101 21.1199L37.0001 20.4099ZM23.0001 35.9999C22.4068 35.9999 21.8267 35.824 21.3334 35.4944C20.84 35.1647 20.4555 34.6962 20.2285 34.148C20.0014 33.5998 19.942 32.9966 20.0577 32.4147C20.1735 31.8327 20.4592 31.2982 20.8788 30.8786C21.2983 30.4591 21.8329 30.1733 22.4148 30.0576C22.9968 29.9418 23.6 30.0012 24.1481 30.2283C24.6963 30.4554 25.1649 30.8399 25.4945 31.3332C25.8241 31.8266 26.0001 32.4066 26.0001 32.9999C26.0001 33.7956 25.684 34.5587 25.1214 35.1213C24.5588 35.6839 23.7957 35.9999 23.0001 35.9999Z" fill="#3A57E8"/>
</svg>
