<svg width="56" height="56" viewBox="0 0 56 56" fill="none" xmlns="http://www.w3.org/2000/svg">
<circle cx="28" cy="28" r="28" fill="#F1FEF2"/>
<circle cx="28" cy="28" r="20" fill="#DFFFE0"/>
<path d="M25.7102 27.29C25.5219 27.1017 25.2665 26.9959 25.0002 26.9959C24.7339 26.9959 24.4785 27.1017 24.2902 27.29C24.1019 27.4783 23.9961 27.7337 23.9961 28C23.9961 28.2663 24.1019 28.5217 24.2902 28.71L27.2902 31.71C27.3836 31.8027 27.4944 31.876 27.6163 31.9258C27.7381 31.9755 27.8686 32.0008 28.0002 32C28.1371 31.9957 28.2716 31.9632 28.3955 31.9047C28.5193 31.8463 28.6299 31.763 28.7202 31.66L35.7202 23.66C35.8818 23.4593 35.9597 23.204 35.9377 22.9473C35.9157 22.6905 35.7955 22.4522 35.602 22.282C35.4086 22.1118 35.1569 22.0228 34.8995 22.0336C34.642 22.0444 34.3987 22.1542 34.2202 22.34L28.0002 29.54L25.7102 27.29Z" fill="#2CA428"/>
<path d="M36.9998 27C36.7346 27 36.4802 27.1054 36.2927 27.2929C36.1052 27.4804 35.9998 27.7348 35.9998 28C35.9998 30.1217 35.157 32.1566 33.6567 33.6569C32.1564 35.1571 30.1215 36 27.9998 36C26.4199 35.9993 24.8756 35.5308 23.5616 34.6535C22.2476 33.7763 21.2227 32.5297 20.6163 31.0708C20.0099 29.6119 19.849 28.0061 20.1539 26.4559C20.4588 24.9057 21.216 23.4805 22.3298 22.36C23.0705 21.6094 23.9535 21.014 24.9271 20.6088C25.9006 20.2036 26.9453 19.9966 27.9998 20C28.6393 20.004 29.2764 20.0778 29.8998 20.22C30.0303 20.2604 30.1676 20.2736 30.3034 20.2588C30.4392 20.244 30.5705 20.2016 30.6892 20.1342C30.808 20.0667 30.9116 19.9757 30.9938 19.8666C31.076 19.7576 31.135 19.6328 31.1672 19.5001C31.1994 19.3674 31.204 19.2295 31.1808 19.0949C31.1576 18.9603 31.1071 18.8319 31.0324 18.7176C30.9577 18.6033 30.8604 18.5055 30.7464 18.4302C30.6324 18.355 30.5043 18.3038 30.3698 18.28C29.593 18.0972 28.7979 18.0033 27.9998 18C26.0242 18.0103 24.0958 18.6055 22.4581 19.7107C20.8204 20.8158 19.5468 22.3813 18.7979 24.2095C18.0491 26.0378 17.8586 28.0469 18.2504 29.9834C18.6423 31.9198 19.599 33.6968 20.9998 35.09C22.8565 36.9475 25.3735 37.9939 27.9998 38C30.652 38 33.1955 36.9464 35.0709 35.0711C36.9462 33.1957 37.9998 30.6522 37.9998 28C37.9998 27.7348 37.8945 27.4804 37.7069 27.2929C37.5194 27.1054 37.265 27 36.9998 27Z" fill="#2CA428"/>
</svg>
