<svg width="24" height="24" viewBox="0 0 24 24" fill="none" xmlns="http://www.w3.org/2000/svg">
<path fill-rule="evenodd" clip-rule="evenodd" d="M4.67209 14.4146H22.4845V15.4941H4.67209C4.52894 15.4941 4.39164 15.4372 4.29042 15.336C4.18919 15.2348 4.13232 15.0975 4.13232 14.9543C4.13232 14.8112 4.18919 14.6739 4.29042 14.5726C4.39164 14.4714 4.52894 14.4146 4.67209 14.4146ZM4.67209 16.5736H22.4845V17.6532H4.67209C4.52894 17.6532 4.39164 17.5963 4.29042 17.4951C4.18919 17.3938 4.13232 17.2565 4.13232 17.1134C4.13232 16.9702 4.18919 16.8329 4.29042 16.7317C4.39164 16.6305 4.52894 16.5736 4.67209 16.5736ZM4.67209 18.7327H22.4845V19.8122H4.67209C4.52894 19.8122 4.39164 19.7554 4.29042 19.6541C4.18919 19.5529 4.13232 19.4156 4.13232 19.2725C4.13232 19.1293 4.18919 18.992 4.29042 18.8908C4.39164 18.7896 4.52894 18.7327 4.67209 18.7327Z" fill="#FAFBFC"/>
<path d="M4 5.85714C4 5.38376 4.23703 5 4.52941 5H12.4706C12.763 5 13 5.38376 13 5.85714V10.1429C13 10.6162 12.763 11 12.4706 11H4.52941C4.23703 11 4 10.6162 4 10.1429V5.85714Z" fill="#F2F4F7"/>
</svg>
