<svg width="24" height="24" viewBox="0 0 24 24" fill="none" xmlns="http://www.w3.org/2000/svg">
<path d="M2 6.62683V17.5352C2 18.5396 2.41848 19.4323 3.08805 20.1298C3.75762 20.7994 4.62248 21.162 5.62683 21.162H11.095V18.9023H5.62683C4.87357 18.9023 4.28769 18.2885 4.28769 17.5352V6.62683C4.28769 5.87357 4.87357 5.28769 5.62683 5.28769H11.095V3H5.62683C4.62248 3 3.75762 3.39058 3.08805 4.06015C2.41848 4.75762 2 5.62248 2 6.62683ZM7.99822 9.91888V14.2711C7.99822 14.7732 8.4446 15.1917 8.94677 15.1917H13.9964V18.6233C13.9964 18.9302 14.1638 19.1812 14.4428 19.3207C14.5544 19.3486 14.666 19.3486 14.7218 19.3486C14.9171 19.3486 15.0845 19.2928 15.224 19.1533L21.7802 12.5971C22.0871 12.3461 22.0592 11.8439 21.7802 11.5649L15.224 5.0366C14.8334 4.61812 13.9964 4.86921 13.9964 5.53878V8.99822H8.94677C8.4446 8.99822 7.99822 9.4167 7.99822 9.91888Z" fill="#8A92A6"/>
</svg>
