<svg width="24" height="24" viewBox="0 0 24 24" fill="none" xmlns="http://www.w3.org/2000/svg">
<path opacity="0.4" d="M16.191 2H7.81C4.77 2 3 3.78 3 6.83V17.16C3 20.26 4.77 22 7.81 22H16.191C19.28 22 21 20.26 21 17.16V6.83C21 3.78 19.28 2 16.191 2Z" fill="white"/>
<path fill-rule="evenodd" clip-rule="evenodd" d="M8.0798 6.6499V6.6599C7.6488 6.6599 7.2998 7.0099 7.2998 7.4399C7.2998 7.8699 7.6488 8.2199 8.0798 8.2199H11.0688C11.4998 8.2199 11.8498 7.8699 11.8498 7.4289C11.8498 6.9999 11.4998 6.6499 11.0688 6.6499H8.0798ZM15.9198 12.7397H8.0798C7.6488 12.7397 7.2998 12.3897 7.2998 11.9597C7.2998 11.5297 7.6488 11.1787 8.0798 11.1787H15.9198C16.3498 11.1787 16.6998 11.5297 16.6998 11.9597C16.6998 12.3897 16.3498 12.7397 15.9198 12.7397ZM15.92 17.3099H8.07996C7.77996 17.3499 7.48996 17.1999 7.32996 16.9499C7.16996 16.6899 7.16996 16.3599 7.32996 16.1099C7.48996 15.8499 7.77996 15.7099 8.07996 15.7399H15.92C16.319 15.7799 16.62 16.1199 16.62 16.5299C16.62 16.9289 16.319 17.2699 15.92 17.3099Z" fill="#F2F4F7"/>
</svg>
