<svg width="1440" height="306" viewBox="0 0 1440 306" fill="none" xmlns="http://www.w3.org/2000/svg">
<mask id="mask0_1211_16877" style="mask-type:alpha" maskUnits="userSpaceOnUse" x="0" y="0" width="1440" height="306">
<rect width="1440" height="306" fill="#C4C4C4"/>
</mask>
<g mask="url(#mask0_1211_16877)">
<g clip-path="url(#clip0_1211_16877)">
<path d="M-23.2995 75.1885L8.7983 49.9205C41.0784 24.6345 105.274 -25.9014 171.455 -54.5476C237.636 -83.1937 305.803 -89.9501 377.042 -67.5624C448.282 -45.1746 522.594 6.35731 590.762 -2.23981C658.931 -10.8369 720.955 -79.5631 786.233 -117.322C851.511 -155.082 920.042 -161.874 989.475 -157.713C1058.91 -153.552 1129.24 -138.436 1200.12 -119.694C1271 -100.951 1342.42 -78.5818 1411.13 -81.711C1479.84 -84.8402 1545.84 -113.468 1578.66 -127.764L1611.66 -142.078L1586.55 -395.425L1552.46 -392.047C1518.56 -388.687 1450.39 -381.931 1382.05 -375.156C1313.7 -368.382 1245.17 -361.589 1176.82 -354.815C1108.47 -348.04 1040.3 -341.284 971.952 -334.509C903.603 -327.735 835.072 -320.942 766.723 -314.168C698.374 -307.393 630.207 -300.637 561.858 -293.862C493.509 -287.088 424.978 -280.295 356.629 -273.521C288.28 -266.746 220.113 -259.99 151.764 -253.215C83.415 -246.441 14.8837 -239.648 -19.5642 -236.234L-53.8298 -232.838L-23.2995 75.1885Z" fill="#293EAC"/>
<path d="M-9.20858 217.355L22.8892 192.087C55.1693 166.801 119.365 116.265 185.365 85.7958C251.366 55.327 319.171 44.9253 389.688 60.0225C460.205 75.1197 533.433 115.716 600.698 98.0055C667.963 80.2951 729.265 4.2784 794.001 -38.9489C858.737 -82.1762 926.907 -92.614 997.243 -79.3395C1067.58 -66.0649 1140.08 -29.078 1211.86 -1.22228C1283.64 26.6334 1354.71 45.3578 1423.6 44.0513C1492.49 42.7447 1559.21 21.4072 1592.39 10.7564L1625.75 0.0876678L1611.3 -145.724L1578.3 -131.409C1545.48 -117.114 1479.48 -88.4854 1410.77 -85.3562C1342.06 -82.227 1270.64 -104.597 1199.76 -123.339C1128.88 -142.082 1058.55 -157.197 989.114 -161.358C919.681 -165.52 851.15 -158.727 785.872 -120.968C720.594 -83.2083 658.569 -14.4822 590.401 -5.88503C522.233 2.71209 447.921 -48.8198 376.681 -71.2076C305.442 -93.5954 237.275 -86.8389 171.094 -58.1928C104.913 -29.5466 40.717 20.9893 8.43698 46.2753L-23.6608 71.5433L-9.20858 217.355Z" fill="#3048C4"/>
<path d="M2.71455 337.649L34.451 308.735C66.3698 279.804 129.843 221.978 196.024 193.331C262.205 164.685 331.094 165.219 401.973 183.962C472.851 202.704 545.718 239.655 613.344 225.59C680.97 211.525 743.356 146.444 808.634 108.685C873.912 70.9254 942.082 60.4876 1011.33 62.8263C1080.59 65.165 1150.92 80.2803 1221.8 99.0227C1292.68 117.765 1364.1 140.135 1433.35 142.474C1502.6 144.812 1569.69 127.12 1603.05 118.292L1636.59 109.446L1625.39 -3.55782L1592.03 7.11096C1558.85 17.7617 1492.13 39.0992 1423.23 40.4058C1354.34 41.7123 1283.28 22.9879 1211.5 -4.86776C1139.72 -32.7234 1067.22 -69.7104 996.882 -82.9849C926.546 -96.2595 858.376 -85.8216 793.64 -42.5944C728.904 0.632919 667.602 76.6497 600.337 94.36C533.072 112.07 459.844 71.4742 389.327 56.377C318.81 41.2798 251.005 51.6815 185.004 82.1503C119.004 112.619 54.808 163.155 22.5279 188.441L-9.56985 213.709L2.71455 337.649Z" fill="#3752DC"/>
<path d="M23.3089 545.43L53.4195 500.113C83.7124 454.777 143.934 364.143 210.115 335.497C276.296 306.851 348.437 340.193 420.399 369.871C492.361 399.549 564.144 425.564 631.951 413.322C699.758 401.08 763.589 350.58 828.687 310.998C893.784 271.416 960.147 242.752 1027.77 228.687C1095.4 214.621 1164.29 215.156 1234.63 228.43C1304.96 241.705 1376.74 267.72 1447.26 282.817C1517.78 297.914 1587.03 302.094 1621.47 304.201L1656.1 306.291L1636.23 105.801L1602.68 114.647C1569.32 123.475 1502.24 141.167 1432.99 138.828C1363.74 136.49 1292.32 114.12 1221.44 95.3775C1150.56 76.635 1080.23 61.5197 1010.97 59.181C941.721 56.8423 873.551 67.2801 808.273 105.04C742.995 142.799 680.609 207.88 612.983 221.945C545.356 236.01 472.489 199.059 401.611 180.317C330.733 161.574 261.844 161.04 195.663 189.686C129.481 218.332 66.0084 276.159 34.0896 305.09L2.35315 334.003L23.3089 545.43Z" fill="#4A61EB"/>
<path d="M41.7355 731.339L75.8205 726.12C110.088 720.883 178.258 710.445 246.426 701.848C314.594 693.251 382.761 686.494 451.471 683.365C520.182 680.236 589.436 680.734 658.327 679.427C727.217 678.121 795.746 675.01 863.914 666.413C932.082 657.815 999.891 643.732 1067.7 631.49C1135.5 619.248 1203.31 608.846 1271.48 600.249C1339.65 591.652 1408.18 584.859 1477.61 589.02C1547.04 593.182 1617.38 608.297 1652.36 615.873L1687.53 623.43L1655.74 302.646L1621.11 300.556C1586.67 298.448 1517.42 294.269 1446.9 279.172C1376.38 264.074 1304.6 238.059 1234.26 224.785C1163.93 211.51 1095.04 210.976 1027.41 225.041C959.786 239.106 893.422 267.771 828.325 307.353C763.228 346.935 699.397 397.434 631.59 409.677C563.783 421.919 492 395.904 420.038 366.226C348.076 336.548 275.935 303.206 209.753 331.852C143.572 360.498 83.3511 451.132 53.0582 496.467L22.9476 541.784L41.7355 731.339Z" fill="#6576F0"/>
</g>
</g>
<defs>
<clipPath id="clip0_1211_16877">
<rect width="1648.41" height="796.864" fill="white" transform="translate(-52.7466 -221.908) rotate(-5.66045)"/>
</clipPath>
</defs>
</svg>
